<svg xmlns="http://www.w3.org/2000/svg" viewBox="0 0 900 758" role="img" aria-label="????? ????? ??????? ??????? ????????" focusable="false" data-saudi-map-svg>
  <metadata>Generated from https://github.com/homaily/Saudi-Arabia-Regions-Cities-and-Districts.git geojson/regions.geojson. Each region path includes its mainland and associated island rings for a single heat-map color and hover state. Total rings: 196.</metadata>
  <g class="saudi-map-regions" fill-rule="evenodd">
  <path class="saudi-region" id="sa-region-1" data-region-id="1" data-region-code="RD" data-name-ar="منطقة الرياض" data-name-en="Riyadh" data-ring-count="1" d="M448 231.4L446.4 231.3L444.4 233.7L442.8 233.9L441.7 234.6L444.3 235.6L445.7 236.7L446.3 237.2L445.9 238.5L442.2 239.7L440.3 242.5L440 248.6L442.6 249.8L441.8 257.1L441.8 257.1L433.8 258.5L425 263.3L425.7 267L426.8 269.6L425.3 269.4L423.1 268.5L421.9 268L420 268.4L420.6 271.3L420.6 281.4L420.6 281.4L422.1 281.8L422.1 282.4L422.6 282.5L421.5 284.7L422.2 286.2L422.5 286.5L422.4 290.4L422.1 292.6L424.5 293.8L425.7 298L427.8 298.8L427.4 299L427.7 299.4L427.7 299.5L427 302.3L429.5 306.1L428.2 306.7L432.2 314.3L434.7 313.8L437.6 318.1L438.8 319.9L438.3 321.4L435.5 330.2L424.8 325L421.9 328.6L416.9 328.9L415.9 329.3L416.4 329.6L416.2 330.4L414.1 329.6L412.3 330.6L411.3 331.6L409.5 332.4L406.9 336.9L404.7 335.3L403.7 335.7L401.6 336.8L401.4 336.8L398.7 336.3L398.4 336.6L398.3 336.8L397.5 336.8L396.1 339.9L396.3 341.4L396.6 342.3L395.4 342.4L395.3 342.4L394.9 343.5L391.5 344.2L389.6 343.5L388.2 341.3L385.6 342.7L384.9 343.6L384.4 343.4L382.8 345.2L380.6 345.7L377.1 348.6L378.2 350.1L378.2 350.1L372.4 349.2L371.1 352.2L371 352.5L370.9 354.5L372.2 355.3L373.8 354.5L375 354.8L375.2 354.8L375.6 355.3L372.2 357.7L373.4 360L371.6 361.1L371.6 361.8L376 360.6L372.3 372.3L365.3 369.6L359.6 372.1L359.6 374.3L349.6 374.3L344.3 363.3L342.3 363.4L339.6 362.1L338.9 361.3L332.7 361.9L331.9 362.2L332.2 365.6L330.3 366.9L330.2 368.7L329.5 369.4L330.7 370.5L330.6 374.1L332 377L330.8 378.1L332.1 378.2L331.5 379.4L332.9 379.9L333.2 383L332.9 386.4L331 389.1L330.6 391L333.1 391.8L331.3 394.9L331 395.6L331.3 397.5L331.6 398.3L328.5 402L326.9 402.2L326.4 401.8L323.7 402.7L324.3 405L323.9 405.9L323 406.4L319.3 406.1L318.9 405.9L318.8 405.7L318.5 404.3L317.2 405.5L315.2 405.7L314.5 406.7L315.2 408.2L314.8 409.3L315.9 409.1L316.3 410.3L317.1 411.1L326.7 412.9L328.6 412.3L330.3 413.1L331.7 413.2L336.7 412.7L337.9 417.7L339.2 418.7L340 418.7L339.9 419.2L342.8 420L343.9 422.8L343.4 426.7L344.7 429.7L345.7 433.9L353.4 435.2L354.3 436.5L354.3 438.5L353.3 438.7L353.8 439.1L354 439.6L356.9 441.4L356.6 442.7L357.2 443.8L358.5 443.9L359.6 442.8L361.5 443.3L362.8 446.2L363.5 449.5L364.1 450.1L366.2 451.1L374.7 451.7L376.6 452.7L376.4 454.4L375.9 454.8L375.3 455L373.4 455.3L372.8 456.7L376 460.7L376.5 464L379.5 463.6L380.3 465.7L382 466.8L381.6 467.5L379.4 468.2L377.8 470.3L378.5 471.5L379.4 472L380.2 473.5L382 481.2L385.4 482.2L386.5 483.8L386.1 485L386.8 486.8L386.3 489.3L386.6 492.7L389.2 496.2L390.7 497.3L392 497.1L392.2 497.7L392 498.6L391.8 499.3L392.7 499.7L392.3 501.5L389.9 503L389.1 505L392.5 506.5L393.6 508L389.2 519.1L389.7 520.8L392.7 522.7L398.5 530.9L400.1 536.9L399.5 540.6L399.7 541.3L401.9 541.6L403.8 543.2L405.6 545.7L407.3 545.5L409.8 546.4L409.7 547L408.4 547.9L408.2 549.1L409.1 557.7L410.1 560.9L410.1 564.6L411.9 568.3L413.8 570.3L413.6 571.9L414.2 573.4L416.4 575.1L416.8 576.1L416 582.1L415.5 582.9L416.8 583.9L420.7 589.1L421.9 592.4L450.3 591.1L451.5 601.3L455.2 599.7L461.2 597.2L463 597.2L463 597.6L547.5 596L573.9 537.6L561.7 522.8L562.5 509.7L562.2 509.2L560.3 508.7L559.2 508L560.3 505.2L561.2 500.8L564.1 495.1L566.5 494.5L569.7 491.5L572 488.4L566.9 486.7L564.3 487L559.7 483.5L558.8 482.2L559.6 478.5L561.3 475.1L561.8 472.4L565.5 466.3L566.2 463.4L567.4 461.2L567.1 459.5L567.8 457.4L567.7 455.9L568.8 452.4L570.1 443.5L570.1 441.3L569.6 439.9L570.1 436.5L569.8 434.4L570.9 426.9L570.2 420.6L572.1 409.4L571.9 406.3L571.3 405.5L571.4 404.1L572 403.1L571.9 400.6L571.1 398.3L570.6 389.6L570.8 385.8L570.4 384.1L570.8 383.1L570.2 380.9L566.7 375.2L565.4 369.9L561.7 371.8L555.6 373L555.9 372.1L555.5 370.6L556.3 367.8L555.7 361.9L556.3 358.2L554.4 354.1L551.4 351.4L551.3 350L552 348L553.3 347.1L554 346.5L553.6 344.5L553.7 343.2L557.7 339.7L555.6 337L556.2 333.5L552.2 326.6L553.5 320.8L555.4 319.4L553.7 317.8L554.5 316.6L554.6 315.2L551.6 312.6L551.4 307.9L549.4 304.2L549.6 303.5L550.8 302.8L551 301.4L550.5 299.3L547.5 290.8L546.2 288.7L542.9 289.9L540.4 289.2L539.2 289.9L536.5 287.3L534.2 285.1L533.5 285.4L532.6 284.8L531.9 280.6L526.5 280L525 280.1L522.4 277L512.1 271.9L507.9 273.7L507.9 274.1L508.1 276.7L502 273.7L498.1 271L497.3 272.4L494.7 269.7L494.3 268L492.4 269.2L487.9 265.6L480.7 253.4L477.6 252.7L476.5 250L469 248.5L465.9 249.4L462.9 249.5L459.1 249.1L456.6 248.1L454.9 243.1L456.5 240.5L455.1 238.8L450.6 239.7L451 236.1L449.6 232.8Z"/>
  <path class="saudi-region" id="sa-region-2" data-region-id="2" data-region-code="MQ" data-name-ar="منطقة مكة المكرمة" data-name-en="Makkah" data-ring-count="30" d="M271.3 583L270.6 583.2L273 584ZM207 480.4L207.2 481L207.1 481L206.9 480.6L207 480.4ZM206.5 480.7L205.8 482.3L205.7 480.9L206.2 480.3ZM207.8 480.1L207.6 479.8L208.2 479.4ZM208.2 472.4L208 472.7L208.2 471.8L208.3 471.8L208.4 471.8ZM210.2 471L210.3 470L210.3 470.1ZM209.8 471.1L209.6 471.3L209.5 471.3L209.7 469.5ZM205.1 463.7L205 463.7L204.8 463.6L204.9 463.3L204.8 463L204.9 463L205.1 462.9L205.2 463.1L205 463.2L205 463.3L205.1 463.3L205.1 463.5ZM204.5 457.9L204.1 458.1L204.5 457.3ZM206.6 452.6L205.4 453.1L205.5 453.5L205.4 453.7L205.2 453.1L205.3 452.8ZM204.9 444.3L204.3 444.2L203.8 443ZM198.1 441.5L198 441.6L197.9 441.6L197.8 441.7L197.6 441.7L197.7 441.4L198.1 441.4ZM202.4 441.5L202.3 441.5L202.2 441.3L202.1 441.2L201.9 441.1L201.7 441L201.6 440.8L201.5 440.6L201.4 440.5L201.4 440.4L201.4 440.5L201.5 440.5L201.8 440.8L202.1 440.9L202.2 441L202.3 441.2L202.4 441.3L202.4 441.4ZM199.7 439.2L199.7 439.2L199.7 439.2L199.7 439.2L199.7 439.2L199.7 439.2L199.7 439.2L199.7 439.2L199.7 439.2L199.7 439.2ZM198.8 436.6L198.2 437.4L199 434.2ZM198.4 433.4L198.2 433.4L198 433.3L197.8 433.2L197.7 433L197.9 433L198.1 433.1L198.3 433.2L198.4 433.3ZM197.2 432.6L197.7 432.8L197 432.8ZM197.5 432.4L197.4 432.5L197.2 432.3L197.1 432.2L197.1 432L197.2 431.9L197.3 432.1L197.4 432.3ZM196 430.5L196 430.5L195.8 430.3L195.6 430.1L195.6 429.8L195.5 429.5L195.3 429.2L195.2 429L195.2 428.9L195.3 428.9L195.5 429.1L195.6 429.5L195.8 430.1L196 430.4ZM196.9 431L196.2 430.5L195.5 428.6ZM192.3 428.5L191.9 428.2L192.1 428.2ZM195.4 428.6L195.2 428L195.3 428.2ZM194.7 428.1L194.6 428.2L194.5 427.8L194.2 427.5L194.2 427.4L194.3 427.4L194.5 427.6ZM194.5 427L194.6 427.5L194.2 427L194.2 426.7ZM194.1 426.5L194.1 426.6L193.8 426.2L193.7 425.9L193.9 425.9L193.9 426.1L194.2 426.3L194.2 426.4ZM193.7 425.1L194.1 425.5L193.6 425.7L193.3 423.9ZM193 423.7L193 423.9L192.7 423.3L192.8 423.2ZM192.3 422.4L192.2 422.5L192.1 422.4L192.2 422.1ZM192.2 421.8L192.2 421.9L192 421.7L192.1 421.5ZM283.1 587.3L281.5 586.9L280.2 585.8L279.3 585.6L278.2 584.3L278.5 583.9L279.1 584.7L279.1 582.9L279.5 581.8L278.8 579L276.7 576.3L273.9 577L273.1 576.5L273.2 577.4L274.5 578.2L274.2 578.6L273.1 577.8L272.4 577.1L272.1 575.7L270.6 574.9L270.1 572.5L268.6 571.8L269.1 570.4L268.7 569.2L264.4 566.5L263.8 565.4L260.3 564.2L259.6 563.5L258.7 563.5L257.1 561L255.1 560.7L256.5 560.7L256.6 559.6L253.9 559.6L252.2 557.8L251.7 556.2L250.2 555.6L247.6 555.7L247.6 556.4L247 556.6L248.6 557.5L249.8 557.4L254.9 560.7L249.9 557.9L247.9 557.9L246.7 556.9L247 556.4L244.7 554.9L243.6 555.4L244.8 555.8L245.1 556.6L245.5 556.3L245.1 556.7L243.9 556.2L238.2 552.5L236.4 551.1L235.2 549.5L234.5 549.2L234.5 548.8L233.8 548.3L234.1 547.6L233.6 547.6L233.8 547.2L233.3 547.2L233.1 546.8L233.2 545.7L232.5 546L231.7 545.1L232.4 544.2L231.5 544.3L231.7 545.1L230.5 543.6L230.6 542.9L231.2 543L231.9 544L231.5 542.6L230.5 542.9L229.7 541.5L229.3 541.6L227.1 537.7L226.7 536.7L227.1 536.6L227.2 537.3L227.7 537.4L227.3 536.7L227.6 536.5L227 536.3L227.3 536L227.1 535.1L225.9 534.7L225.7 534.2L225.1 534.3L226.7 536.7L225.1 535.4L224.1 532.9L225.4 533.7L225.8 533.4L225.2 533L225.5 532.7L224.8 532.6L224.8 532L224.1 532.7L223.5 531.9L221.7 530.8L221.5 530.1L221.6 529.7L222.2 529.8L222.1 529.2L221.1 528.3L220.2 528.6L219.6 528.2L218.1 526L218.3 524.5L216.8 521.9L214.8 520.8L213.9 518.5L213.9 516.2L213.2 516.7L213.9 516.2L213.7 515.5L213 515.1L211.2 511.8L212.1 510.8L211.5 510.8L211.6 510.3L212.4 510.7L212.2 509.7L212.5 509.4L212.3 510.3L213.5 509.9L214.7 507.9L214.3 507.7L214.7 507.8L214.8 507.5L214.2 507.4L214 506L213.6 506.6L213.4 506.1L213.4 506.7L213.5 505.2L213.9 505.9L213.7 504.4L213.4 505L213.1 504.8L213.3 504.1L213.9 504L214.3 504.5L214.6 504L214.1 504.2L214.2 503.6L213.6 503.7L213.7 503.3L213.2 502.7L213.4 502.2L212.8 502.2L213.1 502.7L212.8 502.5L212.6 503.5L212.6 502.6L211.7 502.2L211.5 498.7L210.7 495L211.7 494.2L213.1 492L211.9 493L211.7 494.1L210.5 494.7L209.3 492.7L208.7 490.6L207.8 490L208.8 489.1L207.7 490L207.3 489L206.3 488.4L206 486.9L205.2 486.2L205.1 485.5L206 485.7L205.1 485.4L205.5 485.1L204.9 484.8L205.8 484.3L205.1 484.4L205.7 484.2L205 484.1L205.6 483.7L204.9 484.2L204.8 484.1L204.6 483.9L205.2 483.4L204.6 481.6L205.3 480.9L205.9 483.5L206.3 483.3L206.2 482.9L207.3 483.3L206.9 483L207.9 482.7L208.2 481.8L207.9 480.8L208.9 479.9L208.7 479.6L209.1 479.9L209.4 479.5L209.1 478.4L209.6 476.8L209.3 475.1L208.5 477.7L208.8 478.2L208.8 478.6L208.1 478.4L208.1 477.5L208.9 475.8L208.8 473.4L210.5 471.3L210.8 469.9L211.1 470L210.7 469.6L211.4 469.1L211 469.1L210.8 468L211.2 468.8L211.4 467.8L211.3 467.4L211.1 467.8L210.7 467.5L210.8 467.1L211.3 467.4L211.7 466.5L212.6 466.2L212.9 464.7L212.4 464.3L211.6 464.7L212.1 465.1L212.1 465.9L211.5 465.7L211 466.6L211.1 465.6L210.5 465.2L210.9 465.1L210.4 464.9L210.6 464.6L210.5 465.2L210.2 464.8L210.8 462.3L210.3 460.8L210.4 460L211.3 459.5L210.4 459.8L210.7 458.3L210.4 457.2L208.3 454.3L208 452.3L206.7 450.8L206.8 450.4L207.6 450.4L207.3 450.1L207.7 449.5L207.3 449.8L206.6 449.6L206.7 450.2L201.2 441.7L202.7 442.3L204.3 444.8L203.8 444.9L204 445.4L204.5 445.2L205.5 445.9L206.2 445L204.7 443.2L203.8 440.6L202.1 440.3L201.8 439.8L200.8 439.8L200.5 439.1L200.3 439.9L199.2 438.6L198.8 437.4L199.6 436.3L199.7 435L198.6 430.5L198.2 430.4L198.4 431L197.8 431.3L195.5 428L195.4 427L195.8 426.9L195.4 426.5L195.2 427.1L194.5 425.9L195.1 426.3L194.6 425.1L195.2 424.5L194 423.8L194.3 423.3L193.9 421.2L194.9 421.7L196.6 422L202.6 419.6L204.5 422.1L206.7 422.3L206.9 423.4L207.9 423.8L208.4 424.9L208.9 425.1L210.5 424.4L211.6 425.5L211.6 426.6L212.2 426.8L212.2 427.6L212.8 428.3L212.8 429.3L212 430.4L213.3 430.8L215.4 433.9L218.6 435.1L218.1 436.3L217.4 436.6L218.7 437.6L220.4 438L221.1 437.5L223.2 438.2L223.6 437.2L225.4 437.2L228.8 435.1L228.7 434L232.5 434.1L232.3 435.1L233.1 435.2L233.2 436.1L233.5 435.8L234.1 436.2L236 435.5L236.5 434.8L241.4 436.4L241.9 437.4L240.4 438.4L241.6 439.8L241.7 441L242.6 442.3L242.4 442.8L240.6 443.9L239.1 446.1L239.9 447.6L242 447L242.4 447.7L244.2 447.9L246.1 449.3L247.6 448.8L249.6 449.4L250.3 450.9L251.2 452.3L253 453.5L252.3 454.6L252.4 454.7L253.2 456.4L252.9 457.7L254.1 459.3L255.1 458.9L259.3 459.6L259.9 459.4L260.4 459.8L260.9 459.1L262.3 458.9L262.2 457.6L263.5 457.2L267.9 454.3L270 455L270.6 455.8L270.5 456.7L271.3 457.2L273.2 457.1L276.8 455.8L278.1 454.5L279.2 451L279.3 447.7L280.4 444.8L283.8 443.8L288.8 444.8L289.8 444.1L290.9 441.5L290.6 440.2L292.7 437.6L294.2 437.1L295.1 437.8L296.8 438.2L297.3 437.7L297.9 437.8L298.7 436.4L299.6 435.8L300.4 435.7L301.1 436.1L302.5 435.5L303.6 435.6L304.9 434.3L305.5 434.3L304.1 432.5L301.8 431L301.8 428.7L302.8 427.3L301.7 427.7L300.8 427.6L301.3 427.1L301.1 424.3L301.8 421.9L300.9 420.8L300.9 420L301.6 418.4L301.5 416.1L302.6 413.3L303.6 412.7L304.3 411.3L307.7 409.7L308.1 410.3L311.8 408.8L313 409.3L315.7 409.1L317.1 411.1L326.7 412.9L328.6 412.3L330.3 413.1L331.7 413.2L336.7 412.7L337.9 417.7L339.2 418.7L340 418.7L339.9 419.2L342.8 420L343.9 422.8L343.4 426.7L344.7 429.7L345.7 433.9L353.4 435.2L354.3 436.5L354.3 438.5L353.3 438.7L353.8 439.1L354 439.6L356.9 441.4L356.6 442.7L357.2 443.8L358.5 443.9L359.6 442.8L361.5 443.3L362.8 446.2L363.5 449.5L364.1 450.1L366.2 451.1L374.7 451.7L376.6 452.7L376.4 454.4L375.9 454.8L375.3 455L373.4 455.3L372.8 456.7L376 460.7L376.5 464L379.5 463.6L380.3 465.7L382 466.8L381.6 467.5L379.4 468.2L377.8 470.3L378.5 471.5L379.4 472L380.2 473.5L382 481.2L385.4 482.2L386.5 483.8L386.1 485L386.8 486.8L386.3 489.3L386.6 492.7L389.2 496.2L390.7 497.3L392 497.1L392.2 497.7L392 498.6L391.8 499.3L392.7 499.7L392.3 501.5L389.9 503L389.1 505L393 506.9L393.5 508.6L391.6 512.3L389.2 519.1L389.7 520.8L392.7 522.7L398.5 530.9L400.1 536.9L399.5 540.8L398.4 538.7L394.1 538.2L389.5 535.5L386.7 535.4L384.7 534.7L382.4 534.7L377.5 533.5L374.9 533.6L372.8 536L372.1 537.8L369.7 539.6L365 541.1L360.9 542.6L357.4 545.8L356.7 545.9L355.2 547L351.4 548.1L348.4 549.8L344.4 550.2L341.9 551.2L340.3 552.3L338 553.3L336.5 555.5L335.6 555.5L334.6 554.9L334.8 552.8L333.1 551.9L332.5 551.7L332.6 551L331.7 550.3L332.2 550L332.1 548.7L331.7 545.8L331 545.3L332 543.2L330.2 542.6L328.1 541L327.3 540.7L325.3 539.8L324.5 538.4L322.9 539.9L321.3 540.6L321.1 540.7L319 540.4L313.9 539L311.2 536.2L309.3 535.2L307.4 535.3L306 534.6L304.7 532.7L303 532.5L300.8 533.7L300.2 534.9L300.6 538.5L299.7 539.2L299.7 540.1L299.2 540.4L299 540.5L299.2 541.4L298.4 542.1L298.6 545.1L297.6 545.7L297.6 546.4L296.7 547.3L297 547.6L295.5 548.6L295.1 548.4L295.4 550.3L294.8 551.3L294.7 553.1L294 553.2L293.8 553.9L292.9 553.9L291.9 551.9L290.8 551.6L287.9 552.5L288.3 553.9L287.1 555.5L286.2 555.9L286.6 557.3L282.4 560.3L280.2 562.5L281.7 563L281 564.4L281.3 567.9L283 569.3L282.6 570.9L284.6 571.7L286.9 575.6L288.9 574.8L288.9 575.7L287.4 578L287.3 578.9L293 582.6L295.1 583.4L295 584.2L294 585.4L292.6 586L292.7 587L291 587.3L291.2 588.4L294.7 587.5L296.5 587.9L298 587.7L297.3 589.4L297.4 591.2L299.1 590.7L300.2 589.2L301.9 588.9L304.5 589.4L305.9 588.5L305.9 587.7L306.6 588.2L307.2 587.7L307.7 588.3L309 587.4L308.8 584.7L310 584L309.2 582.4L309.2 581.5L313.9 579.4L315.1 580.5L315.7 579.8L315.3 578.3L315.5 578L316.5 578L317.4 578.4L317.8 578L318.3 578.2L318.8 578.5L320.1 577L321.2 579.6L320.8 580.2L321 581.3L320.3 582L320 582.2L319.1 585.1L320.6 586.1L319.9 587.3L321.1 589.6L320.9 590L322.5 591.7L323.8 591.7L323.7 592.5L324.5 593.6L324.5 594.4L323.6 594.6L323.9 596.3L323.1 596.9L323.6 597.5L323.7 599.4L322.5 600.2L322.2 601.1L321.4 603.2L321.7 604.1L319.4 605L318.9 605.8L316.6 601.4L315.5 601L313.2 601L312.2 600.3L311.8 600.2L311.2 600.7L311.4 601.7L312.9 601.7L310.9 602.7L309.9 606L310.2 607.9L309.1 607.5L307.1 607.6L305 609.8L305 610.5L306.8 610.8L308.6 614.5L309.8 614.9L310.4 617.6L311.9 618.9L310.6 619.6L312 622.7L306.4 624.2L302.2 624.6L301.7 628.4L301.2 627.7L298.1 627.5L298.2 627.1L296.9 626.3L297.3 625.4L296.8 625.2L296.6 623.9L295.3 622L296.5 618.2L296.3 616.9L296.8 616.6L293.6 615.4L293.5 613.9L292.2 611.8L293.7 608.4L293.5 606.4L290.5 605.5L290.4 604.7L290.2 605.1L289.8 604.7L290 604.1L289.3 603.8L288.7 601.8L289.1 600.2L288.9 599L287.7 597.9L287.6 596.6L286.3 596L285.8 595.2L285.2 595.2L285.5 594.7L285 592.3L285.6 589.1L285 588.8L284.1 587.5Z"/>
  <path class="saudi-region" id="sa-region-3" data-region-id="3" data-region-code="MN" data-name-ar="منطقة المدينة المنورة" data-name-en="Madinah" data-ring-count="22" d="M162.3 241.8L161.4 242.7L159.9 242.6L158.5 244.2L156 242L154.5 245.4L153.9 248.7L152.7 249.4L152.5 250.3L151.6 251.7L149.3 253.3L148.8 254.7L148.7 255.5L151.2 258.7L151.2 259.4L151.1 259.9L151.5 260.7L151.6 261.7L151.2 265.3L150.7 265.6L150.8 266.3L150.3 266.5L149.4 266.9L148.6 268.3L146.3 269.5L144.7 273.5L144.3 273.8L141.7 272L141.1 271.1L140.2 270.6L138.9 270.2L138.3 270.5L138.3 271L138.2 271.8L137.9 272.4L137.4 272.9L132.4 273.3L131.7 273.7L131.5 274L132.5 274.8L131.9 275.5L132.2 276.2L131.3 278L131.9 279.2L131.3 279.5L130.8 281.3L131.6 282.5L130.8 282.7L130.8 283.5L134.1 285.3L135.7 290L139.8 291.6L142.5 294.2L143.2 295.3L142.2 298.7L143.5 302.6L145.7 303.8L146.5 303.7L147.4 304.4L148.9 308.2L150.1 309.5L149.2 309.8L148.3 312.4L148.5 313.4L150.9 315L151.8 316.4L160.3 319.5L161.2 321L161.1 321.9L160 322.4L159.8 323.7L156.6 324.8L155.8 327L156.2 328.1L157.8 329.9L157.5 331.5L159.6 332.9L159.6 334L158.8 334.6L159.1 335.4L158.5 336.5L158.7 337.8L158.1 338.4L160.3 342.6L162.2 343.3L162 344.5L160.6 347L160.5 348.1L161.3 349.4L163.8 351.2L163 352.3L163.6 352.9L164.1 354.6L164.6 355.3L166.9 355.9L167.3 355.3L169 357.7L168.5 359.1L168.6 361L166.4 360.5L165.3 359.7L164.3 360L163 359.6L160.8 360.9L159 360.8L158.7 360.8L158.4 362.2L160.3 363.5L160.4 364.1L158.4 365.7L158.6 367L156.9 365.9L154 365.4L152.5 365.4L152.4 365.9L150.8 366.2L149.9 366.2L148.8 365.2L147.9 365L146.3 365.6L144.4 368.9L142.1 370.9L143.9 373.1L144.5 374.6L144.7 374.5L145.8 376.3L145.6 377.6L144.7 377.2L144.4 379.3L146.1 380.5L147.4 382.9L148.2 383.6L149.7 383.6L150.4 384.7L152.3 384.5L152.4 383.5L152 383.4L151.9 382.3L153.2 382.9L153.6 382.4L155 382.3L155.2 383.3L155.9 383.3L156.4 384.1L157.5 383.6L158.6 386.3L161.8 388.8L164.5 389L164.5 387.5L163.7 387.3L163.7 386.8L165.4 386.3L165.5 386.6L164.6 387.6L164.8 388.4L165.4 388.5L165.8 387.8L166.7 388.2L165.7 388.1L164.7 389.1L168.9 392.4L170.1 391.8L170.1 392.4L169.5 392.5L170.3 392.9L170.6 392.1L170.4 392.5L172.7 394L173.2 394.9L173.7 394.6L173.5 395.3L174 395.8L175 395.4L174.3 395.9L175.7 396.5L174.9 396.5L175.9 397.5L176.3 397.6L176 396.9L177.2 398.2L177.5 397.6L178.7 398.1L178.5 399.1L178.8 399.2L178.9 398.3L179.5 399.3L179.2 399.5L179.7 399.6L179.4 399.8L179.7 399.7L180.1 400.4L180.4 399.9L180.1 400.4L180.3 400.1L182.1 401.3L183.3 403.7L184.6 403.7L185.8 405L185.8 407L186.9 410.2L186.8 409.4L187.9 411.2L188.8 411.5L188.4 411.7L188.4 412.1L187.9 411.9L189 413L189 415.5L189.9 416L190.4 415.6L191.1 415.8L189.7 415.4L189.5 414.5L189.9 414.2L190.4 414.8L191.5 414.2L191.2 415.4L192.8 416.9L193 419.2L193.5 420.7L193.8 420.2L193.9 421.2L194.9 421.7L196.6 422L202.6 419.6L204.5 422.1L206.7 422.3L206.9 423.4L207.9 423.8L208.4 424.9L208.9 425.1L210.5 424.4L211.6 425.5L211.6 426.6L212.2 426.8L212.2 427.6L212.8 428.3L212.8 429.3L212 430.4L213.3 430.8L215.4 433.9L218.6 435.1L218.1 436.3L217.4 436.6L218.7 437.6L220.4 438L221.1 437.5L223.2 438.2L223.6 437.2L225.4 437.2L228.8 435.1L228.7 434L232.5 434.1L232.3 435.1L233.1 435.2L233.2 436.1L233.5 435.8L234.1 436.2L236 435.5L236.5 434.8L241.4 436.4L241.9 437.4L240.4 438.4L241.6 439.8L242.5 442.6L240.6 443.9L239.1 446.1L239.3 446.8L239.9 447.6L242 447L242.4 447.7L244.2 447.9L246.2 449.3L247.6 448.8L249.6 449.4L250.3 450.9L251.2 452.3L253 453.5L252.3 454.6L252.4 454.7L253.2 456.4L252.9 457.7L254.1 459.3L255.1 458.9L260.5 459.8L260.9 459.1L262.3 458.9L262.2 457.6L263.5 457.2L267.9 454.3L270 455L270.6 455.8L270.5 456.7L271.3 457.2L273.2 457.1L276.6 455.9L278.1 454.5L279.2 451L279.3 447.7L280.4 444.8L283.8 443.8L288.8 444.8L289.8 444.1L290.9 441.5L290.6 440.2L292.7 437.6L294.2 437.1L295.1 437.8L296.8 438.2L297.3 437.7L297.9 437.8L298.7 436.4L299.6 435.8L300.4 435.7L301.1 436.1L302.5 435.5L303.6 435.6L304.9 434.3L305.5 434.3L304.1 432.5L301.8 431L301.8 428.7L302.8 427.3L301.7 427.7L300.8 427.6L301.3 427.1L301.1 424.3L301.8 421.9L300.9 420.5L301.6 418.4L301.5 416.1L302.6 413.3L303.6 412.7L304.3 411.3L307.7 409.7L308.1 410.3L308.8 410.2L311.8 408.8L314.8 409.3L315.2 408.2L314.7 407.7L314.6 406.2L315.4 405.6L317.2 405.5L318.4 404.3L318.8 405.7L318.9 405.9L319.3 406.1L323 406.4L323.9 405.9L324.3 405L323.7 402.7L326.4 401.8L326.9 402.2L328.5 402L331.6 398.3L331.3 397.5L331 395.6L331.3 394.9L333.1 391.8L330.6 391L331 389.1L332.9 386.4L333.2 383L332.9 379.9L331.5 379.4L332.1 378.2L330.8 378.1L332 377L330.6 374.1L330.7 370.5L329.5 369.4L330.2 368.7L330.3 366.9L332.2 365.6L331.5 361L331.6 359.9L332 358.8L331.9 358.2L330.5 357.1L325 344.8L317.1 342.4L316.4 342.7L315.9 342.5L312.5 342.1L311.6 341.4L311 340.4L310.5 337.7L310.1 337.5L309.2 337.9L305.1 334.7L302.4 331L300 328.7L297.3 329.7L297.3 329.7L290.9 327.9L289.4 328.4L288.8 327.9L287 327.7L285.6 328.4L283.1 327.7L282.4 325.7L281.5 325.3L281.4 326.4L280.3 326.7L278 329.2L278.1 330.5L276.8 332.8L275.8 333.2L273.1 333.1L271.2 333.8L268.1 332.1L266.8 332L266.4 333.8L265.1 334.8L266.5 336.8L266 339.4L264.4 338.2L260.6 337.6L259.9 338.5L260.3 339.8L259.9 340.3L258.5 338.9L256.5 338.8L255.7 335.6L252.8 335.4L252.1 336.1L250.8 336.2L249.8 336.9L247.9 335.3L245.2 335.1L244.3 335.9L243.9 334.7L245.6 333.1L245 331.6L245.9 327.7L245.6 325.4L246.3 321.5L244.9 317.4L245.9 314.3L245.1 312.6L246 310.2L245.2 309.2L245.4 304.7L242.5 302L242 300.9L241.9 299.6L243.4 297.7L242.3 296.4L241.8 294.8L242.3 289.6L240.7 288.4L240.1 286.8L238.7 285.4L237.6 280.6L234.8 280.6L234 280L233.7 275L231.9 272.4L231.9 272.4L231.2 272.1L229 273.3L225.6 272.8L224.6 271.7L221.4 274L211.2 271.5L207 272.3L205.5 272.1L204.2 271.3L202.5 271.2L200.7 270.8L198.4 271.5L197.4 272.7L197 272.7L196.5 272.7L194.5 271.6L193.8 270.5L192.9 270.4L192.3 269.5L191.6 271.4L189.2 270.3L190.3 269.2L190.1 268.8L189.7 268.7L188.9 268.7L187.2 270.7L185.9 268.6L186.4 267.3L185.3 266.5L185.4 264.7L184.9 263.7L180.9 262.4L178.8 260.2L177.4 257.7L174 256.2L172.8 254.4L171.6 254.4L167.2 257.2L166.4 256.9L165.4 254.5L166.1 252L165.1 249.5L164.8 247L165.1 245.2L164.6 243.9ZM145.2 376.5L145.1 376.9L144.6 376.5L144.4 376.2L144.3 375.5ZM174.5 400.2L175.3 400.3L176.2 401.2L176.1 401.3L174 400ZM144.5 376.8L143.8 376.6L143.8 376L143.9 375.8ZM144.1 377.1L144.3 377.3L144.2 377.9L143.4 377.2ZM176.4 415.3L176.8 416.8L176.7 416.7L176.6 416.3L176.5 416.2L176.4 415.7L176.2 415.5L176.2 415.3ZM166.1 406.2L166.1 406.2L165.7 406.1L165.2 405.5L165.2 405.4L165.4 405.4L166.1 406ZM178.2 403.7L178 403.8L178 403.7L178 403.4L177.9 403.2L177.9 403L178 402.9L178.1 403.1L178.2 403.3L178.3 403.5ZM163.2 402.3L163.5 402.9L163.1 402.7L162.9 402.5L163 402.1ZM143.7 375.5L143.6 375.6L143.5 375.5L143.5 375.4L143.7 375.1L143.9 375.1L144 375.2L143.9 375.3ZM183 408.9L182.9 409L182.8 408.9L182.6 408.4L182.6 408.1L182.7 408.1L182.8 408.6L183 408.8ZM182.4 409.7L182.3 409.9L182 409.6L182 409.1ZM184.9 413.9L184.5 413.9L185.3 413.6ZM189.8 420L189.8 420.2L189.7 420.1L189.4 419.9L189.4 419.6ZM164.7 404.6L164.3 404.2L164.5 404.2ZM181.5 416.3L181.4 416.7L181.6 416L181.7 416.1ZM183.5 415.6L183.3 415.6L183.4 415.2L183.6 415.1L183.7 415.1L183.5 415.3ZM164.9 403.6L164.4 403.4L164.7 403.4ZM188.6 419.7L188.5 419.8L188.4 419.3L188.4 419.2L188.6 419.3L188.6 419.4ZM183.8 416.8L183.7 416.8L183.7 416.8L183.7 416.5L183.8 416.3L183.9 416.4L183.8 416.5ZM173.6 395.7L173.2 395.6L173.3 395.5ZM189.5 420.4L189.3 420.1L189.6 420.3Z"/>
  <path class="saudi-region" id="sa-region-4" data-region-id="4" data-region-code="QA" data-name-ar="منطقة القصيم" data-name-en="Qassim" data-ring-count="1" d="M421.5 206.4L414.6 212.5L416.8 215.4L412.2 220.3L408.9 223L407.7 223.6L406.2 224.9L404.2 225.2L403.6 225.6L402.9 225.2L402.9 226L401.7 225.2L393.2 227.3L386.5 232.4L382.6 234.9L383.3 238.4L383.6 239L383.9 238.8L384 238.9L385.1 241.6L385.6 243.8L385.5 246.7L386.1 248.2L382.7 249.6L381.6 251L380.7 250.9L380.8 249.7L380.1 249.7L379.2 252.7L376.3 255.2L373.6 260.4L369.6 264.9L363.6 267.2L359.6 271.2L358.3 271.7L357.9 273.2L351.8 279.7L351 283.2L347.7 285L341.7 287.3L341.6 287.3L341.5 287.3L338 286.7L338 286.9L337.9 287.3L333.7 293L334 293.9L335.4 295L335 295.7L334.4 296.7L327.9 301.4L326.4 305.8L323.7 307.2L323 309.4L321.4 312.2L318.7 313.8L318.1 313.7L317.1 313.7L313.9 312.4L315 316.7L310.5 317.6L309.8 319.5L309.8 319.5L305.2 319L299.8 324.3L299.3 326.7L300.2 327.8L300 328.7L302.4 331L305.1 334.7L309.2 337.9L310.1 337.5L310.5 337.7L311 340.4L311.6 341.4L312.5 342.1L315.9 342.5L316.4 342.7L317.1 342.4L325 344.8L330.5 357.1L331.9 358.2L331.5 361L331.9 362.2L332.7 361.9L338.9 361.3L339.6 362.1L342.3 363.4L344.3 363.3L349.6 374.3L359.6 374.3L359.6 372.1L365.3 369.6L372.3 372.3L376 360.6L371.6 361.8L371.6 361.1L373.4 360L372.2 357.7L375.6 355.3L375.2 354.8L375 354.8L373.8 354.5L372.2 355.3L370.9 354.5L371 352.5L371.1 352.2L372.4 349.2L378.2 350.1L378.2 350.1L377.1 348.6L380.6 345.7L382.8 345.2L384.4 343.4L384.9 343.6L385.6 342.7L388.2 341.3L389.6 343.5L391.5 344.2L394.9 343.5L395.3 342.4L395.4 342.4L396.6 342.3L396.3 341.4L396.1 339.9L397.5 336.8L398.3 336.8L398.4 336.6L398.7 336.3L401.4 336.8L401.6 336.8L403.7 335.7L404.7 335.3L406.9 336.9L409.5 332.4L411.3 331.6L412.3 330.6L414.1 329.6L416.2 330.4L416.4 329.6L415.9 329.3L416.9 328.9L421.9 328.6L424.8 325L435.5 330.2L438.3 321.4L438.8 319.9L437.6 318.1L434.7 313.8L432.2 314.3L428.2 306.7L429.5 306.1L427 302.3L427.7 299.5L427.7 299.4L427.4 299L427.8 298.8L425.7 298L424.5 293.8L422.1 292.6L422.4 290.4L422.5 286.5L422.2 286.2L421.5 284.7L422.6 282.5L422.1 282.4L422.1 281.8L420.6 281.4L420.6 281.4L420.6 271.3L420 268.4L421.9 268L423.1 268.5L425.3 269.4L426.8 269.6L425.7 267L425 263.3L433.8 258.5L441.8 257.1L441.8 257.1L442.6 249.8L440 248.6L440.3 242.5L442.2 239.7L445.9 238.5L446.3 237.2L445.7 236.7L444.3 235.6L442.6 235L442.1 234.9L438.4 232.6L435.1 230.1L433.6 225.3L433.6 225.2L432.8 224.4L432.8 218.7L432.8 217.3L432.6 217.2L428.3 213.7Z"/>
  <path class="saudi-region" id="sa-region-5" data-region-id="5" data-region-code="SQ" data-name-ar="المنطقة الشرقية" data-name-en="Eastern Province" data-ring-count="4" d="M659 299L659 299L659 299L659 299L659 299L659 299L659 299L659 299L659 298.9L658.9 298.9L658.9 298.9L658.9 298.9L658.9 298.9L658.9 298.9L658.9 299L658.9 299L658.9 299L658.9 299L658.9 299L659 299L659 299L659 299L659 299L659 299L659 299L659 299L659 299L659 299L659 299.1L659 299.1L659 299.1L659 299.1L659 299.1L659 299.1L659 299.1L659 299.1L659 299.1L659 299.1L659 299.1L659.1 299.1L659.1 299.1L659.1 299.1L659.1 299.1L659.1 299.1L659.1 299.1L659.1 299.1L659.1 299.1L659.1 299.1L659.1 299.1L659.1 299.1L659.1 299.1L659.1 299.1L659.1 299.1L659.1 299.1L659.1 299.1L659.1 299.2L659.1 299.2L659.1 299.2L659.1 299.2L659.1 299.2L659.1 299.2L659.1 299.2L659.1 299.2L659.1 299.2L659.1 299.2L659.1 299.2L659.1 299.2L659.1 299.2L659.1 299.2L659.1 299.2L659.1 299.2L659.1 299.2L659.1 299.2L659.1 299.2L659.1 299.2L659.1 299.2L659.1 299.2L659.1 299.2L659.1 299.2L659.1 299.2L659.1 299.2L659.1 299.2L659.2 299.2L659.2 299.2L659.2 299.2L659.2 299.2L659.2 299.2L659.3 299.2L659.3 299.2L659.3 299.2L659.2 299.2L659.2 299.2L659.3 299.2L659.3 299.2L659.3 299.2L659.3 299.2L659.4 299.1L659.4 299.1L659.4 299.1L659.4 299.1L659.3 299.1L659.3 299.1L659.3 299.1L659.3 299.1L659.3 299.1L659.3 299.1L659.3 299.1L659.3 299.1L659.3 299.1L659.3 299.1L659.3 299.1L659.3 299.1L659.3 299.1L659.3 299.1L659.3 299.1L659.3 299.1L659.3 299.1L659.3 299L659.3 299L659.3 299L659.3 299L659.3 299L659.3 299L659.3 299L659.3 299L659.3 299L659.3 299L659.3 299L659.2 299L659.2 299L659.2 299L659.2 299L659.2 299L659.2 299L659.2 299L659.2 299L659.2 299L659.2 299L659.2 299L659.2 299L659.2 299L659.2 299L659.2 299L659.2 299L659.2 299L659.2 299L659.1 299L659.1 299L659.1 299L659.1 299L659.1 299L659.1 299L659.1 299L659.1 299L659.1 299L659.1 299L659.1 299L659.1 299L659.1 299L659.1 299L659.1 299L659.1 299L659.1 299L659.1 299L659.1 299L659.1 299L659 299L659 299L659 299L659 299L659 299L659 299L659 299L659 299L659 299L659 299ZM606 235L606 235L606 235L606 235L606 235L606 235L606 235L606 235L606 235L606 235L606 235L606 235L606 235L606 235L606 235L606 235ZM627.2 234.5L627.1 234.5L627 234.5L627.1 234.4L627.2 234.3L627.2 234.4L627.2 234.5ZM606 235L607.6 237.1L609.2 237.5L610.5 238.4L613.8 238.3L613.5 237L614.5 237L614 237.3L613.9 238.1L614.4 238.1L614.3 237.6L615.1 238.1L615.3 237.1L615.3 238.7L616.6 239.1L617.5 240.9L618.6 241.4L618.9 243.6L618.9 243.3L618.3 243.5L618.6 242.7L618.2 242L617.4 243.3L616.7 243.1L616.7 242.6L615.9 243.5L615 242.7L613.8 244L614.2 243.5L614 242.7L613.4 242.9L613 243.7L612.1 243L611.4 244.5L612.4 244.2L614.2 245.1L614 245.3L614.6 245L614.7 245.9L615.8 245.5L615.8 244.4L616.4 244.3L617.3 245.3L616.5 246.3L616.2 245.9L615.7 246.1L616.1 247.4L615.9 248.2L615.5 247.6L615 248L615.1 248.6L616 248.7L617.8 247.4L619.2 248.1L619 250.2L619.5 251.6L619.1 252.8L619.7 252.9L619.8 253.5L619.2 254.1L619.3 254.7L620.5 256.4L621 254.1L622.3 253.7L623 254.2L622.4 256.3L622 255.8L621.2 256L621 257L621.4 257.4L622.2 257.4L623.2 258.3L623 257.4L623.2 256.8L623.5 257L623.6 256.1L624.3 256.4L624 257.5L624.4 257.8L625.5 256.8L627 257.7L627.3 257.4L626.2 255.8L626.8 254.9L626.7 253.9L625 252.1L624.6 250.2L625.9 247.3L628.3 246.8L629.9 248.1L634.7 249.2L632.3 249.3L631.9 248.6L629.5 249.6L628.7 250.8L628.4 250.6L628.2 250.2L628.5 249.3L628 249.4L627.6 249.3L628.6 248.5L628 248L627.7 247.8L626.6 248.1L626.2 250.1L626.6 250.7L626.9 252.2L627.1 251.8L628 252.1L629.3 254.4L629.9 254.8L630.4 254.6L630.6 255.3L630 255.7L630.3 255.1L629.8 254.8L629.1 256.2L629.7 258.6L630.5 259.4L630.9 258.1L630.8 259.4L631.5 257.5L630.8 259.5L631.2 258.7L630.9 259.6L631.8 259.5L631.1 260L633.8 258.7L633.9 258.3L634.5 258.3L634.5 259.5L634.5 258.9L634.2 259.4L633.7 259.4L633.7 258.9L633.5 259.4L633.3 259.1L631.1 260.2L631.6 260.2L632.3 261.7L634.1 261.4L633.7 262.1L633.1 262.2L633.3 263.6L634 263.5L634.1 264.3L634.6 264.2L634.4 264.8L635.7 265.4L637.7 267.3L641.2 269L644.6 269.3L646.3 270.7L649.3 275.1L650.6 275.8L652.7 278.5L652.9 279.4L651.3 276.9L650.6 277.2L649 276.6L647.9 277.5L646.7 274.2L646.2 274.1L645.8 277.9L646.2 277.9L646.1 278.3L647 278.2L646.6 279.3L647.2 281.9L647.5 281L648.9 280.6L648.4 281L648.9 281L649.7 280.4L649.5 281L650 281.9L649.5 282.9L649.9 283.4L648 283.1L647.3 282L648 283.5L648 285.2L649.4 286.1L649 286.7L650.5 285.7L650.3 286.7L650.7 286.9L651 285.5L651.6 285.1L651.6 288L651.8 286.9L652.3 287.6L652.9 286.7L652.5 288L652.9 288.3L653.4 287.3L653.2 286.4L654 284L653.9 285.5L654.3 284.4L654.6 284.6L654.4 285.6L654.9 285L654.7 285.8L654.2 286L654.9 286.2L655.2 285L653.7 288.8L654 289.2L655 288.6L655.3 289.2L654.4 289.8L655.9 291L655.7 292.1L655.3 292.1L655.7 293.6L655.1 295.4L655.3 296.8L654.9 297L655.2 299.2L653.7 300.7L654 299.9L653.1 299.4L652.9 301L653.4 301.2L652.4 304L652.6 305L652.2 305.1L652.6 305.1L652.6 305.6L651.7 306L651.6 305.5L652.3 305.6L651.9 305.5L652 304.8L651.2 305.1L651.2 303.4L650.1 301.9L649.5 301.7L648.8 299.2L647.6 298.4L645.9 302.3L646.9 303.8L646.4 304L646.4 307.8L647.1 308L647.9 306.8L648.9 307.2L649.1 307.9L650.6 308L651.1 308.8L651 309.7L651.7 310.4L650.6 311L650.7 312.5L653.7 317.9L655 318.7L655.9 321.1L656.9 321.9L656.9 324.5L656.7 322.8L656.2 323L655.8 321.4L655.1 321.8L654.8 321.1L653.4 320.3L653 319.3L652.2 319.5L651.8 318.8L652.6 320.9L653.8 321.8L653.9 322.4L654.4 321.2L654.7 321.5L655.1 324.2L656.6 325.5L657.3 327L658.7 327.6L658.5 328L658.8 328.8L661.2 331.8L661.9 332L662.3 333.4L662.8 333.7L662.2 331.5L661.7 331.6L662 332L661.6 331.7L661.6 330.6L660.8 329.4L661.6 329L662.2 329.6L661.8 330.1L662.2 330.7L666.1 333.8L666.1 334.7L667.6 338.4L667.3 341.4L668.7 343.6L668.7 345L668.1 345.6L669.2 348.7L668.8 349.6L669.8 350.2L669.3 349.5L669.6 348.5L673.3 354L673.6 356.2L675.4 357.2L675.5 358.5L676.3 359.9L676.7 363.4L677.2 364L677.9 362.9L678.8 362.8L683.5 371.6L686.3 373.5L690.2 374.8L698.8 374.2L700.9 372.6L702.8 369.3L702.4 368L703.3 368.7L703.5 368.2L704 368.2L704.4 370L705.4 369.3L706.5 370.3L705.7 371L704.4 371L704.1 372.1L703.2 372L702.7 373.7L699.3 376.4L698.5 380.1L697.8 380.3L697.3 382.6L698 383L698.9 382.6L700.5 382.8L702.4 381.1L704.1 381.2L704.3 381.6L705.8 382L707.6 384.4L709.9 384.3L709.9 384.5L709.9 389.9L749.4 441.6L851.5 454.9L854.2 451.5L872.6 482.2L846 567.7L726.3 610.1L726.1 596L547.5 596L573.9 537.6L561.7 522.8L562.5 509.7L562.2 509.2L560.3 508.7L559.2 508L560.3 505.2L561.2 500.8L564.1 495.1L566.5 494.5L569.7 491.5L572 488.4L566.9 486.7L564.3 487L559.7 483.5L558.8 482.2L559.6 478.5L561.3 475.1L561.8 472.4L565.5 466.3L566.2 463.4L567.4 461.2L567.1 459.5L567.8 457.4L567.7 455.9L568.8 452.4L570.1 443.5L570.1 441.3L569.6 439.9L570.1 436.5L569.8 434.4L570.9 426.9L570.2 420.6L572.1 409.4L571.9 406.3L571.3 405.5L571.4 404.1L572 403.1L571.9 400.6L571.1 398.3L570.6 389.6L570.8 385.8L570.4 384.1L570.8 383.1L570.2 380.9L566.7 375.2L565.4 369.9L561.7 371.8L555.6 373L555.9 372.1L555.5 370.6L556.3 367.8L555.7 361.9L556.3 358.2L554.4 354.1L551.4 351.4L551.3 350L552 348L553.3 347.1L554 346.5L553.6 344.5L553.7 343.2L557.7 339.7L555.6 337L556.2 333.5L552.2 326.6L553.5 320.8L555.4 319.4L553.7 317.8L554.5 316.6L554.6 315.2L551.6 312.6L551.4 307.9L549.4 304.2L549.6 303.5L550.8 302.8L551 301.4L550.5 299.3L547.5 290.8L546.2 288.7L542.9 289.9L540.4 289.2L539.2 289.9L536.5 287.3L534.2 285.1L533.5 285.4L532.6 284.8L531.9 280.6L526.5 280L525 280.1L522.4 277L512.1 271.9L507.9 273.7L507.9 274.1L508.1 276.7L502 273.7L498.1 271L497.3 272.4L494.7 269.7L494.3 268L492.4 269.2L487.9 265.6L480.7 253.4L477.6 252.7L476.5 250L469 248.5L465.9 249.4L462.9 249.5L459.1 249.1L456.6 248.1L454.9 243.1L456.5 240.5L455.1 238.8L450.6 239.7L451.1 236.4L449.6 232.8L447.8 231.2L446.4 231.3L444.4 233.7L442.8 233.9L441.7 234.6L438.4 232.6L435.1 230.1L433.6 225.3L437.8 220.6L437.9 220.8L439 220.2L440.4 217.5L449.3 186.9L449.2 186.7L450 181.6L449.3 175.6L449.3 175.4L449.5 171.8L450 170.5L452.2 170.2L459.3 168.5L465.3 165.8L503.7 169.5L508.8 167.7L545.2 172.3L550 179.7L550.8 188L552.1 189.1L552.7 190.7L553.9 191.9L554.9 193.1L554.7 193.9L583.7 193.5L585.2 194.8L586.5 195.3L586.5 197.8L587.7 198.7L587 199.2L586.7 200.1L585.5 200.2L585.9 199.9L585.7 199.7L585.2 200.4L585.6 200.7L586.7 200.3L587.7 198.8L588.2 199.2L587.1 202.7L588.1 205L589.9 206.3L591.9 208.9L591.7 209.2L591.7 208.8L591.7 209.2L591.4 208.9L591 209.8L590.9 212.6L592 212.5L591.6 212.7L592.1 212.9L591.1 212.9L591.3 213.7L593.1 215.7L593.1 216.3L593.7 216.5L592.3 216.5L592.8 215.9L592.5 215.7L592.3 216.4L593.2 216.7L593.7 216.4L594.4 217.1L596.3 217.4L596.6 217.1L596.5 217.4L598.2 217.8L597.3 218.8L596.4 219L597.6 218.5L598 217.7L597.5 218.4L596.4 218.6L596.4 219.9L598.2 222L599.4 222.2L599.4 223.7L601.8 225.2L602.2 226.3L601.8 226.2L601.4 227.4L601.9 228.5L600.2 230.3L600.1 229.9L600.8 229.5L600.9 228.3L600.1 228.4L601 227.8L601.3 227.1L600.6 226L600.2 226.1L599.6 227.9L600 228.3L598.7 229L598.5 228.7L599.2 228.6L599.3 227.6L598.9 227.8L599.7 227.2L599.7 225.4L598.9 225.8L598.8 228L597.8 230.8L598.6 230.7L598.8 229.3L599.1 229.3L599.5 229.8L599.1 231.3L599.5 232.1L600.2 231.6L600.2 230.9L600.7 231.7L600.3 233.1L601.9 232.5L601.5 234L601.2 233.4L600.5 234L601.4 234.7L601.4 235.4L600.9 234.6L600.4 234.5L600.1 235L601.4 235.9L602.3 234.4L603.1 234.6L602.4 235.8L602.3 237.3L603.5 236.9L603.3 236L603 236.8L602.6 236.8L603.4 235.6L605 234.7Z"/>
  <path class="saudi-region" id="sa-region-6" data-region-id="6" data-region-code="AS" data-name-ar="منطقة عسير" data-name-en="Asir" data-ring-count="5" d="M377.5 533.5L374.9 533.6L372.8 536L372.1 537.8L369.7 539.6L365 541.1L360.9 542.6L357.4 545.8L356.7 545.9L355.2 547L351.4 548.1L348.4 549.8L344.4 550.2L341.9 551.2L340.3 552.3L338 553.3L336.5 555.5L334.6 554.9L334.8 552.8L333.1 551.9L332.5 551.7L332.6 551L331.7 550.3L330.2 550.5L327.3 552.4L326.4 554.6L326.8 555.6L325.9 556L325.6 557.2L323.7 557.9L321.6 561L322.1 564L321.9 564.4L320.8 563.5L321.2 566.3L320.7 567.5L321.2 567.9L320.6 568.9L320.8 571.1L318.5 573.7L319.2 575.6L318.9 576.6L318.3 578.2L318.8 578.5L320.1 577L321.2 579.6L320.8 580.2L321 581.3L320.3 582L320 582.2L319.1 585.1L320.6 586.1L319.9 587.3L321.1 589.6L320.9 590L322.5 591.7L323.8 591.7L323.7 592.5L324.5 593.6L324.5 594.4L323.6 594.6L323.9 596.3L323.1 596.9L323.6 597.5L323.6 599.5L322.9 599.9L322.5 600.2L322.2 601.1L321.4 603.2L321.7 604.1L319.4 605L318.9 605.8L316.6 601.4L315.5 601L313.2 601L312.2 600.3L311.8 600.2L311.2 600.7L311.4 601.7L312.9 601.7L310.9 602.7L309.9 606L310.2 607.9L309.1 607.5L307.1 607.6L305 609.8L305 610.3L305 610.5L306.8 610.8L308.6 614.5L309.8 614.9L310.4 617.6L311.9 618.9L310.6 619.6L312 622.8L306.4 624.2L302.2 624.6L301.6 628.6L303.8 630.6L303.7 632.3L303.8 631.7L304.5 631.9L303.9 632.1L304.3 632.9L304.1 632.2L304.5 632.1L304.3 633L305 633.5L304.7 634.1L305.1 634.1L305.2 634.9L304.7 635.5L305.3 637.9L306.2 639.1L305.9 639.8L307.3 640.3L307.1 640.9L307.7 640.3L306.7 642.4L307.1 642.7L307.1 641.8L307.4 642.1L307.6 641.6L308.2 642.3L308.4 642.8L308 643.7L308.3 643.4L308.9 643.8L309.5 644.9L308.9 645L309.9 645.3L310.3 646.3L310.2 647.9L311.2 648.8L311.1 649.6L312.7 650L313 651.5L312.4 651.5L312.5 652.3L313.1 652.6L313.8 651.5L313.9 652.5L313.4 652.8L314.7 654L314.3 654.2L313.8 653.7L313.9 654L318.1 658L318 658.9L319.1 659L320.4 660.1L322.7 660.3L322.3 660.7L323.4 661.9L324.1 662.2L325 661.3L327 660.7L328.5 658.8L330.1 655.3L330.4 651.5L329.8 650.6L330.1 650.3L335.6 650.7L335.5 649.6L336.4 650.9L336.6 653.1L336.3 652.9L336.2 652.9L336.2 653.4L337 654.2L337.5 657.1L341.1 658.9L341.3 659.5L342.5 658.9L342.6 658.2L343.1 658.4L342.3 660L341.5 660.3L341.5 661.4L342.3 663.1L342.1 663.9L344 665.6L345.3 664.9L344.7 660.2L344.8 660L345 659.8L345.9 660L347.2 658.9L350.4 660.4L351.7 661.8L353.3 662.4L355.6 661.5L357.6 662.1L359 661.5L359.3 661.4L360.2 661.6L360.7 661.5L361.1 660.7L362 662.9L361.8 663.8L363.3 664.1L365.5 665.4L365.8 666.2L366.7 665.9L367.2 666.8L367 667.7L368.1 669L368.7 668.9L369.1 669.8L369.7 669.5L369.6 668.9L373.7 668.9L374.4 670.7L373.3 672.1L373.3 673.2L376.1 673.7L376.7 673.3L376.4 672.9L375.8 673.1L376.2 671.7L376.9 671.5L377.5 672.5L378.8 671.7L379.3 672L381.1 670.8L381.9 671.3L382.1 670.8L382.1 670.8L384.1 670.5L384.7 671L386.3 671.2L386.7 672L387.1 672.1L387.7 672.8L388 672.5L394.2 678.7L394.9 678.7L395.7 678.6L394.6 677.2L394.2 676L395 676L395.8 675.1L392.4 672L391.5 666.9L390.7 666.5L391.3 662.6L390.7 661.4L391.1 657.5L391.8 657.3L391.4 656.4L392.7 654L393.6 653.8L395.2 651.4L394.2 649.5L395.3 648L395.7 646.2L397.1 644.7L396.3 642.5L397.3 641.7L399.6 641.7L400.3 641.3L401 640.1L400.6 639.1L401.3 637.3L403.8 635.3L404.7 635.3L406.9 633.6L406.7 632.9L403.4 632.1L406.9 628.6L406.2 625.1L407.4 624L408 620.7L409.1 620.1L411.7 619.4L415 615.5L419.5 612.5L421.9 612.7L421.5 606.3L423 605.2L423.7 602.3L424.3 602L424.3 599.3L422.3 596.7L422.3 596.6L422.7 595.7L422.1 593.5L422.4 592.4L421.5 591.7L420.7 589.1L416.8 583.9L415.5 582.9L416 582.1L416.8 576.1L416.4 575.1L414.2 573.4L413.6 571.9L413.8 570.3L411.9 568.3L410.1 564.6L410.1 560.9L409.1 557.7L408.2 549.1L408.4 548L409.7 547L409.7 546.3L407.3 545.5L405.6 545.7L403.8 543.2L401.9 541.6L399.7 541.3L398.4 538.7L394.1 538.2L389.5 535.5L386.7 535.4L384.7 534.7L382.4 534.7ZM296 634.6L295.9 634.8L295.6 634.6L296.5 634.5L296.1 634.5ZM308.7 646L308.6 646.5L308.4 645.7ZM310 647.3L309.9 647.4L309.7 647.2L309.8 647L310 647L310 647.1ZM304.5 661.2L304.3 661.2L304.2 661.2L304.1 661.2L304.1 661.2L304.1 661.1L304.2 661.2L304.3 661L304.4 661L304.4 661L304.5 661L304.6 661L304.6 661.1Z"/>
  <path class="saudi-region" id="sa-region-7" data-region-id="7" data-region-code="TB" data-name-ar="منطقة تبوك" data-name-en="Tabuk" data-ring-count="64" d="M143.7 130.5L142 127.5L117.6 132.5L107.6 149.4L90.3 163.9L45.8 156L45.3 157.5L45.6 158.5L45 158.5L44.7 159L45.2 161.2L44 162L44.2 162.9L43.4 163.8L43.2 165.4L42.8 165.8L42.4 169.1L41.4 171L42 172.5L41.3 173.6L41.3 175.1L40.4 177.6L41.1 178.3L40.7 179.9L40.9 180.9L38.5 187.7L39.4 189.9L39.2 191.5L39.8 194L38.1 196.9L36.5 201.9L34.6 205.6L35 205.4L34.5 206.1L34.2 208.3L33.4 209.2L33.9 210.3L32.8 209.8L30.4 213.4L30.8 213.8L31.4 213.2L32 213.4L31.7 214.9L32.2 215.7L32.5 215.6L32.1 216L32.5 216.6L33.1 216.4L33.1 215.9L33.3 216.2L33.5 214.9L34.3 214.6L33.4 213.6L34.6 212.5L34.7 211.7L35.7 212L35.9 211.4L36.5 212.3L36.2 212.8L37.5 212.9L38.2 213.6L38.3 213.2L38.4 213.6L39 213.6L39.2 213L40.4 212.8L39.4 214.5L39.9 214.4L40.6 213.5L40.4 213L41 212.5L42.1 212.8L41.1 213.4L41.5 214.5L42.1 214.1L44.6 214.3L45.8 213.5L45.1 213.7L45.5 213.3L46.8 213.2L47.5 212.7L48.4 213.7L48.9 213.7L48.1 212.5L47.8 212.7L48.1 212.2L49.1 213L49.9 212.7L51.7 214.1L51.8 214.6L53.4 214.6L54.1 215.2L56.4 215.6L56.5 216.3L54 217.1L54.1 217.6L58.2 220L58.8 221.5L61.5 224.4L61.9 226.9L64.7 227.9L66.3 231.1L66.9 233.4L68.1 234.9L68.5 234.5L68.6 234.9L68.2 235L68.8 235.5L68.7 237.4L69.4 237.4L69.3 237.9L68.6 237.6L68.9 238.9L70.9 241.7L71.1 243.2L71.4 243.5L71.6 243.2L73.9 246.5L75.1 247.2L75.4 246.9L75.5 247.5L77.1 248.2L77.7 249.8L79.8 252.6L80.2 253.9L79 255.2L79.5 257.6L84.1 262.9L86.2 264.1L86.8 265.2L87.6 265.5L88.2 266.7L89 267.3L89.3 269.4L90 270.2L90.1 271.5L91.2 272.9L91.5 274.4L93.2 275.3L94.4 277.5L96.4 278.7L96.6 279.7L97.3 280L96.9 280.1L99.9 285.3L101.1 287.9L101.2 289.3L102.3 290.7L102.4 291.7L105.7 297.3L106 297.2L105.8 297.5L107.3 302.1L110 304.3L110.5 304.1L110.4 304.6L113.5 304.7L115.7 306L115.9 307.9L115.3 308.8L115.4 310.5L115.2 310.9L115.4 310L114.8 311.7L113.2 314L114.3 314.3L115.3 316.9L115.6 317.2L116.1 316.8L117.2 318.9L118.3 319L118.9 320.1L118.8 319.7L119.4 320.3L120 319.9L119.3 318.1L120.2 318.4L122.3 321.2L122.4 322L122.7 321.7L123.3 322.5L123.6 322.3L124.9 323L125.2 324.1L126.1 324.8L126 325.8L127.4 327.4L127.4 329.5L130.3 331.8L130.9 335.9L131.7 336.7L132 338L134.5 341.2L136.9 343.2L138 347L137.1 348.8L138.8 352L138.7 353.4L137.3 355.7L138 357.4L136.5 358.9L136.3 359.7L135.3 359.9L135 359.4L136 359L134.5 358.6L133.9 358.6L133.6 359.3L134.4 360.8L134.4 360L134.6 360.5L135.9 360.2L136.6 360.7L136.2 361.6L136.6 362.1L135.7 362L136.5 363.7L136.2 364.5L139.1 365.8L140.1 368.1L140.8 367.6L142.1 370.9L144.4 368.9L146.3 365.6L147.5 365.1L147.9 365L148.8 365.2L149.9 366.2L150.8 366.2L152.4 365.9L152.5 365.4L154 365.4L156.9 365.9L158.6 367L158.4 365.7L160.4 364.1L160.3 363.5L158.4 362.2L158.7 360.8L159 360.8L160.8 360.9L163 359.6L164.3 360L165.3 359.7L166.4 360.5L168.6 361L168.5 359.1L169 357.7L167.3 355.3L166.9 355.9L164.6 355.3L164.1 354.6L163.6 352.9L163 352.3L163.8 351.2L161.3 349.4L160.5 348.1L160.6 347L162 344.5L162.2 343.3L160.3 342.6L158.1 338.4L158.7 337.8L158.5 336.5L159.1 335.4L158.8 334.6L159.6 334L159.6 332.9L157.5 331.5L157.8 329.9L156.2 328.1L155.8 327L156.6 324.8L159.8 323.7L160 322.4L161.1 321.9L161.2 321L160.3 319.5L151.8 316.4L150.9 315L148.5 313.4L148.3 312.4L149.2 309.8L150.1 309.5L148.9 308.2L147.4 304.4L146.5 303.7L145.7 303.8L143.5 302.6L142.2 298.7L143.2 295.3L142.5 294.2L139.8 291.6L135.7 290L134.1 285.3L130.8 283.5L130.8 282.7L131.6 282.5L130.8 281.3L131.3 279.5L131.9 279.2L131.3 278L132.2 276.2L131.9 275.5L132.5 274.8L131.5 274L131.7 273.7L132.4 273.3L137.4 272.9L137.9 272.4L138.2 271.8L138.3 271L138.3 270.5L138.9 270.2L140.2 270.6L141.1 271.1L141.7 272L144.3 273.8L144.7 273.5L146.3 269.5L148.6 268.3L149.4 266.9L150.3 266.5L150.8 266.3L150.7 265.6L151.2 265.3L151.6 261.7L151.5 260.7L151.1 259.9L151.2 259.4L151.2 258.7L148.7 255.5L148.8 254.7L149.3 253.3L151.6 251.7L152.5 250.3L152.7 249.4L153.9 248.7L154.5 245.4L156 242L158.5 244.2L159.9 242.6L161.4 242.7L162.3 241.8L164.6 243.9L165.1 245.2L164.8 246.8L165.1 249.5L166.1 252L165.4 254.5L166.4 256.9L167.2 257.2L171.6 254.4L172.8 254.4L174 256.2L177.4 257.7L178.8 260.2L180.9 262.4L184.9 263.7L185.4 264.7L185.3 266.5L186.4 267.3L185.9 268.6L187.2 270.7L188.9 268.7L189.7 268.7L190.1 268.8L190.3 269.2L189.2 270.3L191.6 271.4L192.3 269.5L192.9 270.4L193.8 270.5L194.5 271.6L196.5 272.7L197 272.7L197.4 272.7L198.4 271.5L200.7 270.8L202.5 271.2L204.2 271.3L205.5 272.1L207 272.3L211.2 271.5L221.4 274L224.6 271.7L225.6 272.8L228 272.9L228 271.6L229.7 268.8L229.9 267.3L231.5 266.1L231.5 264.9L232.4 262.8L234.5 260.7L233.7 259.5L233 249.3L236 245.1L238.9 243L243.8 242.2L243.7 239.2L244.1 236.7L243.7 234.8L243 234L242.2 231.6L240.8 230.4L239.2 227.2L231.8 222.2L229.1 219.6L226.3 218.5L217.1 218.6L212.3 217.7L218.4 216.7L221.9 215.6L222.9 214.7L223.5 212.7L221.4 210.9L211.8 205.8L212.6 204.3L215.8 201L216.1 194.7L215.5 190.9L214.6 189.3L213.9 189.2L210.9 189.7L209.4 190.6L206.7 179L206.1 179.1L203.7 176.7L202.9 176.9L201.5 175.2L198.3 175.5L198.1 172.3L199 171.5L198.4 170.4L198.1 168.4L198 160.5L193.5 159.5L189.7 157.2L188.3 159.8L185.6 163.1L184.9 163.3L183 162.5L182.5 162.8L182.6 164.3L184.2 166.8L182.4 168.2L181.8 170.1L181.9 172L175.5 171.5L175.2 166.4L176.3 163.9L174.8 162.9L175.6 162.3L175.5 160.7L176.6 160.3L178.1 159.6L179 158.6L179.3 158.3L179.5 157.5L179.9 156.6L179.8 155.7L179.8 155.7L178.9 154.6L177.6 153.7L176.7 153.1L176.8 151.2L174.9 148.8L174.7 147.3L172.5 147.5L171.1 146.3L167.2 144.9L165.8 146.2L164.5 146.8L156.1 146.5L156.6 143.1L156.3 141.5L156.8 139.4L155.8 138.1L156.4 135.3L154.2 133.8L151.4 132.6L148.8 129.8L147.2 129.7L144 130.8ZM29.8 217.9L27.8 218.2L27.7 218.4L27.7 218.6L28 218.9L28.7 219.4L31.1 219.2L31 220.1L32.5 220.9L32.6 221.1L32.5 221.4L29.8 221.7L27.7 220.3L27.4 218.2L27.6 217.6L27.9 217.4L29.1 217.2ZM108.6 323.7L109.2 323.3L109.8 324.7L111.6 325.7L112.3 325.9L112.3 325.8L112.7 325.5L112.6 326.4L112.8 326.5L113.3 326.5L113.8 326L114.2 326.4L114.7 326.4L114.8 326.6L114.7 326.9L114.1 327.5L108.9 324.7L108.5 325L109 326L107.1 324.1L107 322.8L109.2 320.2L109.3 320.9L108.2 322.6ZM120.8 332.2L124 333L124.2 333.2L124.2 333.4L123.2 333.3L123.5 334.6L123.7 334.9L124.8 333.3L125.8 333.4L124.9 333.8L124.5 334.2L123.9 335.9L123.7 336L123.3 336.1L120.4 333.2L118.7 330.1ZM36.2 219.9L37.2 221.2L36.3 222L36 222L35.8 222.2L34.9 220.3L34.4 221.3L33.8 221.3L33.7 221.2L34.2 220.8L34.1 220.1L35 219.6ZM126.4 330.8L127.4 330.9L127.3 331.7L128.3 332.1L128 333L127.4 332.6L126.4 333L126.1 331.5L125.1 332.2L125.6 330.8ZM115.5 326.4L118.9 328.4L118.3 328.9L118 328.4L117.8 328.4L117.2 328.8L116.9 328.6L117 328.4L117.4 328L115 327.1L115.6 328.5L117.4 329.8L117.4 330.5L114.5 327.7ZM55.5 219L55.6 219.4L56 220.1L56.7 220.5L56.8 220.6L56 220.7L55.8 220.9L55.7 221.3L54.5 219.3L54.4 219.5L55.2 220.6L54.6 220.5L54.4 219.9L54.1 218.8L53.6 218.4L53.9 218ZM109.4 318.2L109.6 319.2L110.3 318.4L110.8 318.7L110.5 319.6L110.4 319.8L110.7 320.4L111.1 320.6L112.2 319.7L111.4 320.8L110.5 320.7L109 319L108.9 317.2L109.2 317.3ZM124.5 325.7L124.3 326.5L123.7 326L124.6 327.2L123.8 326.6L124.9 328.6L124.9 328.8L124.5 328.9L124 327.9L123.3 327.7L123.6 327.3L123.7 327.1L123.2 325.4L124.1 324.8ZM114.6 333.5L114.1 333.2L113.2 330.6L111.9 328.4L111.3 328.1L111 327.8L110.8 327.2L110.9 327L111.2 327.7L112.8 328.4L112.7 329.4ZM77.2 255.4L78.9 259.2L76.9 257L76.8 256.8L76.9 256.6L77.3 257L77.4 256.9L77.1 255.6L76.2 255.5ZM131.9 353.2L132 353.6L131.9 353.9L131.7 353.9L130.7 353.3L129.8 353.4L130.5 351.8ZM121.2 328.2L120.3 327.7L121.4 326.3L122.3 327.2L122.1 327.4L122 327.9L121.6 327.9ZM129.3 333.7L130.3 334.3L130.4 334.5L130.2 334.9L130 334.9L128.7 333.8L128.5 333.7L128.4 333.9L128.6 334.3L127.1 333.5L127.1 333ZM120.8 330L121.4 330.9L121.9 330.8L121.9 330.9L121.6 331.4L120.2 330.1L119.4 330.3L118.4 329.2ZM126 329.3L126.5 329.3L126.9 330.1L124.9 329.8L125.5 328.8L125.7 329.2ZM59.8 234L59.7 234.1L58.8 233.7L58.6 233.3L57.9 232.5L57.4 232.1L56.5 231.7L56.8 231.6L57.9 232.2ZM59.4 224.8L60.3 226.1L58.8 225.1L58.8 225L59.2 224.9L59 224.2L59.1 224.3ZM33.8 215.1L34.1 215.5L34.7 215.3L34.6 216.5L34.3 215.7L34 216L33.6 215.3L33.6 215ZM49.5 215.3L48.9 215.5L48.6 215.2L48.6 214.4L48.8 214.4ZM112.6 314.7L111.7 315L112.2 314.2ZM125.9 328.5L125.5 328.5L125.4 327.9L125.5 327.7ZM36.6 213.9L36.9 214.9L36.6 214.2L35.6 214.1ZM124.9 331.9L124.6 332L124.5 331.8L124.8 331L125.1 330.7ZM53.4 227.9L52.6 227.1L53.2 227.5ZM125.9 337.1L125.6 337L126.5 336.5ZM44.3 220.8L43.6 221L43.5 221L43.7 220.5L43.8 220.3ZM126 332.6L125.7 333L125.2 332.6ZM50.8 222.1L50.4 222.4L50.3 221.7L50.4 221.6ZM117.8 321.2L117.3 321.8L117 321.7ZM54.8 227.6L54.6 227.6L54.2 227.5L54.1 227.4L54.2 227.2L54.8 227.3L54.9 227.5ZM113.3 319.6L113.1 320.3L113.1 319.8L112.7 319.8ZM134.9 354.1L134.6 354.4L134.5 354.3L134.4 353.9L134.4 353.8ZM62.5 232.1L62.9 232.5L62 232.2ZM117.9 322.6L117.6 322.8L117.6 322.6L117.8 322.1ZM51.9 226L51.7 226.2L51.6 226.2L52 225.5L52.1 225.7ZM54.6 227.8L54.7 228L55 227.9L55.3 228L55.4 228.3L55.3 228.4L54.9 228.1L54.5 228.1L54.5 227.9ZM121.9 324.4L121.8 324.5L121.5 324.5L121.4 324.6L121.2 324.6L121.1 324.4L121.3 324.3L121.4 324.2L121.6 324.3L121.8 324.3ZM118.4 336.8L118.3 336.8L117.9 336.6L117.8 336.4L117.9 336.3L118 336.4L118.5 336.6ZM36 215.7L35.8 215.5L36.2 215.2L36.4 215.3L36.4 215.4ZM112.7 318.2L112.4 318.3L112.2 318.2L112.2 318.1L112.3 318L112.6 317.9L112.8 318L112.8 318.1ZM35.6 216.2L35.2 216.9L35.1 216.8L35.4 216.3L35.5 215.9ZM125.2 325.4L125.8 325.8L125.3 325.8L125.1 325.8ZM50.5 214.5L50.9 214.7L51.2 214.6L51.1 214.9ZM123.2 324.8L123.1 324.9L122.7 324.9L122.6 324.8L122.6 324.7L122.7 324.6L123.1 324.6ZM38.9 215L38.5 215.1L38.4 215L39.2 214.7L39.3 214.7ZM133.4 356.2L132.9 356.2L132.8 356ZM114.8 321.4L114.6 321.4L114.4 321.1L114.6 320.8L114.7 320.9L114.7 321.1ZM50.7 216L50.6 216L50.3 215.8L50.4 215.6L50.5 215.6L50.7 215.6L50.8 215.9ZM118.2 329.5L118.1 329.5L117.9 329.2L117.9 329L118 329L118.1 329.1L118.2 329.2ZM125.1 324.1L124.7 323.8L124.9 323.8ZM122 331.7L122.5 332.2L122.3 332.2L121.9 331.9L121.8 331.7L121.9 331.7ZM128.2 331L127.8 330.6L128 330.6ZM125.3 341L124.9 341.3L124.8 341.1ZM125.1 324.5L125.2 324.8L125.1 324.8L124.8 324.6ZM115.1 325.6L114.8 325.2L115 325.3ZM129.5 331.8L129.4 331.9L129 331.6ZM55.5 229.4L55.1 229.1L55.3 229.2ZM125.2 326.6L125.2 326.8L125.1 326.8L125 326.5L125.1 326.3L125.3 326.3L125.3 326.4ZM118 321L118 321.1L117.8 321L117.8 320.9L118 321ZM129.9 331.8L130 331.9L129.8 331.9L129.8 331.8ZM118.3 320.8L118.3 320.9L118.2 320.9L118.2 320.8L118.3 320.7ZM118.6 320.6L118.6 320.8L118.5 320.7Z"/>
  <path class="saudi-region" id="sa-region-8" data-region-id="8" data-region-code="HA" data-name-ar="منطقة حائل" data-name-en="Hail" data-ring-count="1" d="M313.3 164.1L313 163.8L311.6 162.8L307.1 164L305.1 165.5L304.6 168.9L303.2 171.7L304.1 176L296.5 176.2L281.4 175.8L270 176.2L267.1 178.4L259.1 181.8L251 186.1L243.7 188.6L242 190.5L238.6 192.7L235 196L233.8 196.1L232.1 197L228.1 197.4L223 199.5L219 199.6L215.9 201L211.8 205.5L214 207.2L222.8 211.7L223.5 212.7L222.9 214.7L221.9 215.6L218.4 216.7L213.7 217.3L212.4 217.8L217.1 218.6L223.6 218.3L227.9 218.9L231.8 222.2L238.8 226.8L240.8 230.4L242.2 231.6L243 234L243.8 235L243.8 242.2L238.9 243L236 245.1L233 249.3L233.7 259.5L234.5 260.7L232.4 262.8L231.5 264.9L231.5 266.1L229.9 267.3L229.7 268.8L228 271.6L228 272.9L229.4 273.3L231.2 272.1L231.9 272.4L231.9 272.4L233.7 275L234 280L234.8 280.6L237.6 280.6L238.7 285.4L240.1 286.8L240.7 288.4L242.3 289.6L241.8 294.8L242.3 296.4L243.4 297.7L241.9 299.6L242 300.9L242.5 302L245.4 304.7L245.2 309.2L246 310.1L245.1 312.2L245.9 314.3L244.9 317.3L246.3 321.5L245.6 325.4L245.9 327.7L245 331.6L245.7 332.9L243.9 334.7L244.3 335.9L245.2 335.1L247.9 335.3L249.8 336.9L250.8 336.2L252.1 336.1L252.8 335.4L255.7 335.6L256.5 338.8L258.5 338.9L260 340.3L260.3 339.8L259.9 338.5L260.6 337.6L264.4 338.2L266 339.4L266.5 336.8L265.1 334.8L266.4 333.8L267 331.9L268.3 332.1L271.2 333.8L273.3 333.1L275.8 333.2L277 332.7L278.1 330.5L278 329.2L280.3 326.7L281.4 326.4L281.3 325.3L282.4 325.7L283.1 327.7L285.6 328.4L287 327.7L288.8 327.9L289.4 328.4L290.9 327.9L297.3 329.7L297.3 329.7L300 328.7L300.2 327.8L299.3 326.7L299.8 324.3L305.2 319L309.8 319.5L309.8 319.5L310.5 317.6L315 316.7L313.9 312.4L317.1 313.7L318.1 313.7L318.7 313.8L321.4 312.2L323 309.4L323.7 307.2L326.4 305.8L327.9 301.4L334.4 296.7L335 295.7L335.4 295L334 293.9L333.7 293L337.9 287.3L338 286.9L338 286.7L341.5 287.3L341.6 287.3L341.7 287.3L347.7 285L351 283.2L351.8 279.7L357.9 273.2L358.3 271.7L359.6 271.2L363.6 267.2L369.6 264.9L373.6 260.4L376.3 255.2L379.2 252.7L380.1 249.7L380.8 249.7L380.7 250.9L381.6 251L382.7 249.6L386.1 248.2L385.5 246.7L385.6 243.8L385.1 241.6L384 238.9L383.9 238.8L383.6 239L383.3 238.4L382.6 234.9L386.5 232.4L393.2 227.3L401.7 225.2L402.9 226L402.9 225.2L403.6 225.6L404.2 225.2L406.2 224.9L407.7 223.6L408.9 223L412.2 220.3L416.8 215.4L414.6 212.5L421.5 206.4L418.7 197.9L405.1 198.4L404.3 199.2L401.9 199.2L400.2 200.5L398.3 200.8L396.5 199.8L394.9 199.9L392.7 198.2L383.4 195.8L382.1 194L380.5 193.8L379 194.2L378.2 194.9L376.5 198.3L373.1 201.3L372.3 200.1L371 199.5L369.1 199.4L367.5 198.5L367.4 197.6L366.2 198.3L365.2 197.3L364.3 197.3L363.4 198.1L362.7 198.2L363 196.9L360.9 195.6L360.2 194.5L361.2 191.6L360.6 189.5L357.5 188.7L356.2 187L353.7 188L350.5 184.5L350.9 183L349.2 181.2L346.8 181.3L345.1 180.7L341.9 180.5L341.8 180.4L340.3 177.4L335.5 172.3L334.2 169.4L330.9 167.9L329.8 167.8L326.5 167.9L322.1 166.1L321.7 166L319.3 165.9L316.6 165.5L313.8 164.6Z"/>
  <path class="saudi-region" id="sa-region-9" data-region-id="9" data-region-code="SH" data-name-ar="منطقة الحدود الشمالية" data-name-en="Northern Borders" data-ring-count="1" d="M465.3 165.8L435.7 163.3L390.1 124.4L330.4 74.9L304.7 62.7L263.6 35.7L215.3 26L207.5 33.2L166.7 45L166.1 46.4L166 47.1L166.9 48L165.9 49.3L166.1 50.5L165.5 52.2L166.1 52.5L171.1 56.2L175.3 58L176.2 60.9L176.4 66.7L177 68.3L178.4 68.4L179.1 69.1L179 71.2L177.8 72.8L176 73L176.1 73.8L175.4 74.1L174.6 76.1L174.9 79.1L174.1 81.1L174.3 82.6L174.7 83.1L174.9 85.8L174.5 86.7L175.9 86.3L177.1 86.5L178.2 85.3L180.1 84.8L187 84L190.6 82.7L196.1 82.8L197.7 83.5L198.4 84.9L199.4 85L199.5 84.2L201.5 84.4L204.5 81.9L206 82.2L207.4 81.2L215.6 80.9L221 81.9L222.1 82.4L222.7 83.7L224.5 84.4L225.4 84.3L228.5 82.1L229.3 82.5L230.5 81.8L231.7 81.8L233.6 82.3L235.2 84.7L237.7 86.4L239 86.2L240.6 85.1L242.7 84.3L243.1 85.3L246.1 86.8L247.3 88.4L249.4 88.7L249.8 89.6L251.8 91L253.2 90.7L254.8 91.1L255.7 90.6L256.6 89.3L257.7 88.8L258.1 87.6L258.6 87.5L258.6 86.8L259.2 86.7L260.3 86.8L261.1 87.4L263 87.2L265 88.4L266.3 88.3L272.6 92L275.2 90.7L282.4 89.5L287.2 89.4L288.8 89.7L291.6 91.2L291.6 92.5L292.5 95L291.9 97.5L292.4 101.7L294.3 100.9L295.3 98.9L297.4 98L298.7 98.3L300.1 97.7L302.6 98.1L304.9 97.2L305.3 99.2L308.4 98.9L310.1 100L312.5 100.4L313.1 101L312.3 102.7L310.2 104.5L310.7 107.3L313.9 109.5L317.3 108.8L319.1 111.5L320.7 112.8L322 115.2L325.9 118.6L326.9 120.2L325.5 121.6L319.7 123L317.5 125.5L316.8 128.5L314.7 128.9L313.2 128.4L311.3 129.1L310.5 130.4L310.5 131.4L309.1 132L308.8 132.9L304.2 134.5L304.3 135.7L305.5 136.5L305 137.2L304.8 139.6L305.4 141.4L305.3 144L305.9 145.5L305.7 146.3L306.3 146.7L307.2 145.7L308.2 145.9L309.1 145.1L309.1 149.7L310.4 151.7L310.7 153.3L311.8 155.2L313.2 156.3L312.8 157.8L312.8 160.7L313 161.5L314.1 162.7L313.3 164.1L313.8 164.6L316.6 165.5L319.3 165.9L321.7 166L322.1 166.1L326.5 167.9L329.8 167.8L330.9 167.9L334.2 169.4L335.5 172.3L340.3 177.4L341.8 180.4L341.9 180.5L345.1 180.7L346.8 181.3L349.2 181.2L350.9 183L350.5 184.5L353.7 188L356.2 187L357.5 188.7L360.6 189.5L361.2 191.6L360.2 194.5L360.9 195.6L363 196.9L362.7 198.2L363.4 198.1L364.3 197.3L365.2 197.3L366.2 198.3L367.4 197.6L367.5 198.5L369.1 199.4L371 199.5L372.3 200.1L373.1 201.3L376.5 198.3L378.2 194.9L379 194.2L380.5 193.8L382.1 194L383.4 195.8L392.7 198.2L394.9 199.9L396.5 199.8L398.3 200.8L400.2 200.5L401.9 199.2L404.3 199.2L405.1 198.4L418.7 197.9L421.5 206.4L428.3 213.7L432.6 217.2L432.8 217.3L432.8 218.7L432.8 224.4L433.6 225.2L433.6 225.3L437.8 220.6L437.9 220.8L439 220.2L440.4 217.5L449.3 186.9L449.2 186.7L450 181.6L449.3 175.6L449.3 175.4L449.5 171.8L450 170.5L452.2 170.2L459.3 168.5Z"/>
  <path class="saudi-region" id="sa-region-10" data-region-id="10" data-region-code="GA" data-name-ar="منطقة جازان" data-name-en="Jazan" data-ring-count="64" d="M343.9 731.3L343.1 731.4L343 732ZM338.4 730L337.9 729.6L338.8 729L339.2 729.5ZM342 728.5L341.3 728.9L341.7 730L341.2 730.5L340.5 729.2L341.4 728.3L341.3 727.2L341.9 726.4L342.6 727.3ZM341.5 723.7L341.9 724L341.6 725.6L340.7 724.8ZM335.2 724.1L333.9 723.3L334.8 722.1L335.6 722.8ZM340.8 724.2L339.1 724.2L338.8 723.6L340.7 721.8L341.1 723.1ZM326.2 722.9L326.8 723.2L326.3 724L325.7 724.3L325.1 723.9L324.7 723L325 721.8L325.6 721.9ZM336.4 723.8L336 723.4L336.5 722.5L337.9 721.7L338.1 722.1L337.3 723.3ZM341.2 721.3L340.5 721.6L340.1 721.2L340.9 720.8ZM345.2 720.4L345.7 720.7L344.5 721.1L344.2 720.8ZM343.7 720.6L343.3 720L344.1 719.8ZM338.4 720.4L338.3 719.9L339.1 719.9ZM352.5 718.1L352.5 718.1L352.5 718.1L352.4 718L352.5 717.8L352.5 717.8L352.6 717.8L352.7 717.8L352.8 717.8L352.8 717.9L352.7 717.9L352.7 718L352.6 718ZM337.9 718.5L337.7 719.1L336.4 718.6L336.1 717.5L338 717.8ZM323.5 718.1L324 718.2L323.8 719.2L321.8 718.8L321.9 718.2L322.9 717.7L322.9 717.2ZM322.1 716L322.5 716.6L321.8 716.8ZM320.2 714.1L319.6 714.6L319 714.3ZM320.5 713.3L320.7 713.7L320.4 713.8L319.7 713.4ZM317.5 713L317.5 713L317.4 713L317.3 713L317.2 713L317.2 713L317.1 712.9L317.1 712.8L317.1 712.7L317.2 712.7L317.3 712.7L317.4 712.7L317.4 712.7L317.5 712.8L317.5 712.9L317.5 712.9ZM313.8 713L313.7 713L313.6 713L313.6 713L313.6 712.9L313.6 712.8L313.6 712.7L313.7 712.7L313.8 712.7L313.8 712.7L313.9 712.8L313.9 712.9L313.9 712.9L313.8 713ZM319.2 713.2L318.5 713.2L319.2 712.6ZM316.2 712.5L316.6 712.9L316.3 713.3L315.7 712.8L314.7 713.2L315.3 712.5ZM316.9 712.9L316.8 712.9L316.7 712.8L316.7 712.8L316.7 712.8L316.6 712.7L316.6 712.7L316.5 712.6L316.5 712.5L316.5 712.5L316.6 712.4L316.6 712.4L316.7 712.4L316.8 712.4L316.9 712.4L317 712.5L317 712.6L317 712.7L317 712.8ZM329.2 713.2L329.9 712.2L329.6 713.8L328.6 714.1L328.2 712.8L328.7 712L329.4 712.1ZM314.7 712.7L314 712.8L314.2 711.9ZM313.9 712.3L313.4 711.8L313.9 711.3ZM317.8 711.5L317.2 711.6L317.1 711L317.7 711ZM326.2 711.3L325.8 711.1L326 710.7L326.9 710.4L327 711ZM337.6 710.1L337.5 710.6L338.1 711.1L337.8 711.5L336.2 710L337 710.2L337.3 709.7ZM324.1 710.3L323.2 709.5L324.1 709.4ZM316.5 708.5L316.9 708.9L315.8 708.8ZM328.4 710L328.3 710.7L328.1 710L327.7 710.5L326.8 709.8L327.2 708.5L328.7 708.5L328.9 709.1ZM319.4 708.2L320.3 708.3L319.7 708.9ZM312.6 708L312.8 708.2L312.4 708.6L312.2 708.1ZM319.1 708.2L319.1 708.2L319 708.3L319 708.3L318.9 708.2L318.8 708.2L318.7 708.2L318.7 708.2L318.6 708.2L318.6 708.2L318.4 708.2L318.3 708.1L318.2 708.1L318.2 708L318.2 707.9L318.2 707.8L318.3 707.8L318.4 707.8L318.5 707.8L318.6 707.8L318.7 707.9L318.8 707.9L319 708L319.1 708.1L319.1 708.1ZM311 707.5L312.5 707.8L311.5 708.2L310.2 707.9L309.9 707.4L310.5 707.1ZM319.7 706L319.1 706.1L320.5 707.5L321.8 708L322.4 709.1L321.3 708.8L319.6 707.3L317.3 706.8L315.8 705.3L316.9 704.8L318.8 705.3ZM311.7 704.9L311.4 704.6L311.7 704.2ZM310.2 704L310.3 704.3L309.8 704.2ZM336.1 704.6L336.4 705.2L335.7 704.7L335.3 705L335.3 704.1L335.9 704ZM308 703.4L307.3 704.4L306.9 704.1L307.7 703.1ZM308.2 703L308 703.1L307.9 703.1L307.9 703L307.8 703L307.8 702.9L307.8 702.9L307.8 702.8L307.9 702.8L307.9 702.7L308.1 702.7L308.2 702.7L308.3 702.8L308.3 702.9L308.2 703ZM345.4 704L344.6 702.2L345.4 703.1ZM316.4 702L317.5 702.2L317.3 702.8L316.1 702.9ZM306.8 702.9L307 702L307.5 701.9ZM308.7 700.9L308.6 700.9L308.5 700.9L308.5 700.8L308.5 700.7L308.6 700.6L308.6 700.4L308.7 700.3L308.7 700.2L308.7 700.1L308.7 700L308.7 699.9L308.6 699.9L308.6 699.8L308.7 699.7L308.8 699.7L308.8 699.7L308.9 699.8L309 699.9L309 700.1L309 700.2L309 700.3L309 700.4L308.9 700.5L308.8 700.7L308.7 700.8ZM306.6 698.8L306.5 699.5L307.5 699.3L308.6 700.1L307.9 700.1L308.2 700.5L307.5 700.1L307.1 700.5L306.9 700L306.3 700.3L305.4 699.1L306.1 698.6L306.3 698.9L306.5 698.5ZM312.2 701.2L310.5 699.1L310.4 698.4ZM343.6 699.5L342.9 698.7L343.1 698.3L343.7 698.6ZM305.1 699.2L305.3 698.6L306.1 698.3ZM312 702L310.4 701.3L310.3 700.7L309.6 700.1L309.8 698.2L311.6 701.2L312.4 701.7ZM304.6 697.9L304.6 698L304.5 698L304.4 697.9L304.4 697.8L304.3 697.7L304.3 697.5L304.3 697.4L304.3 697.2L304.3 697.2L304.4 697.2L304.5 697.3L304.5 697.4L304.6 697.6L304.6 697.7L304.7 697.9ZM304.1 698.3L303.3 698L303.3 697.2L304.1 697.6ZM316.6 697.5L315.8 698.1L315.4 697.8L316.4 697.1ZM304.9 697.1L305.2 697.3L304.7 697.4ZM303.9 697.2L303.6 696.8L304.1 696.5ZM305 696.4L304.9 696.4L304.8 696.3L304.8 696.3L304.8 696.3L304.8 696.2L304.8 696.2L304.9 696.1L304.9 696L304.8 696L304.8 695.9L304.8 695.9L304.9 695.9L305 695.9L305 695.9L305.1 696L305.1 696.1L305.2 696.2L305.1 696.3L305.1 696.3ZM304.5 695.9L303.9 696.5L302.6 696.3L302.8 695.8ZM314.8 695.8L316.4 696.9L315.7 697.1L315.3 698.3L314.1 698.7L313 697L314.1 695.7ZM319.7 694.3L319.4 694.6L319.8 694.6L320 695.4L319.1 696.3L318.3 694.6ZM313.2 693.2L313.4 693.6L312.8 693.5ZM322.2 693.1L323.3 693.7L323.2 694.1L325.2 694.6L325.1 694L325.9 694.1L325.9 694.8L326.6 694.8L326.5 695.4L324.5 697.7L325.1 698.7L326.7 698.9L326.5 700.4L324.8 700.7L325.3 701.5L326 701.5L326.5 700.9L328 700.4L328.6 700.9L327.9 701.3L328 702.3L329.2 701L330.5 701.3L331.3 702.2L331.4 703.3L332.1 704.4L332.6 704.5L333.3 705.6L334.1 705.6L334.2 705.8L334.1 706.1L333.7 706.5L333.6 706.5L334.5 705.9L334.8 706.1L334.8 707.3L334.1 708.1L334.4 709.7L335 710.7L334.3 711.7L333.3 711.7L332.4 710.3L330 709.4L331.3 708.5L331.1 707.3L329.1 706.8L326.6 707.3L326.2 708.1L325.3 708L323.3 706.1L322.3 705.9L320.6 704.4L319.5 702.1L317.9 702.1L318.5 700.5L317.4 700L317 698.4L316.4 698.1L316.9 697.2L318.6 699.4L320.1 699.6L321.2 700.4L321.9 701.6L321.9 702.8L322.6 703.8L325.3 704.5L326.3 704.6L326.6 704.3L325.8 704.3L325.7 703.3L322.2 701.7L322.1 700.8L320.6 699L320.7 697.5L322.3 697.4L323.5 696.1L323.4 694.9L320.7 693.7L321.6 692.6ZM317.3 691.4L317.9 691.8L316.6 691.8L316.7 691.3ZM336.3 650.7L336.6 653.1L336.3 652.9L336.2 652.9L336.2 653.4L337 654.2L337.5 657.1L341.1 658.9L341.3 659.5L342.5 658.9L342.6 658.2L343.1 658.4L342.3 660L341.5 660.3L341.5 661.4L342.3 663.1L342.1 663.9L344 665.6L345.3 664.9L344.7 660.2L344.8 660L345 659.8L345.9 660L347.2 658.9L350.4 660.4L351.7 661.8L353.3 662.4L355.6 661.5L357.6 662.1L359 661.5L359.3 661.4L360.2 661.6L360.7 661.5L361.1 660.7L362 662.9L361.8 663.8L363.3 664.1L365.5 665.4L365.8 666.2L366.7 665.9L367.2 666.8L367 667.7L368.1 669L368.7 668.9L369.1 669.8L369.7 669.5L369.6 668.9L373.7 668.9L374.4 670.7L373.3 672.1L373.3 673.2L376.1 673.7L376.7 673.3L376.4 672.9L375.8 673.1L376 671.9L376.9 671.5L377.5 672.5L378.9 671.7L379 672L376.5 673.9L377.2 674.9L376.1 676L376.8 677.3L376 677.9L379.9 680.3L380.3 681.3L377.6 681.8L375.9 683.2L375 683.2L374.8 683.8L375.5 685.2L373 686.7L373.3 690.4L374.3 689.9L376 690.9L376.8 693.4L376.5 693L376.4 692.8L375.9 693.6L375.4 693.1L375.2 693.2L375 693.6L374.1 693L374 694.3L374.4 694.8L374 695.4L374.7 696.3L372.4 697.5L372.9 699.1L374.1 700.3L375.7 700.8L376.2 702.1L377.6 702.6L376.9 703.7L377.5 704.3L377 704.8L375.9 704.6L375.9 705L376.1 705.3L375.4 706.1L376 706.5L376.3 708.9L373.2 707.9L373 707.5L372.9 707.6L372.7 707.7L372.3 708.1L372.8 709.2L372.6 710.5L372.5 710.9L372.1 711L371.7 713.7L366.6 714L364.9 715L364.5 718.7L364.9 718.7L365.2 719L360.2 719.9L359.1 719L357.6 718.8L357.5 718.3L357.1 718.5L357.5 718.3L358.1 716.2L356.1 714.4L355.9 712.8L355.4 712.1L356 709.5L355.7 709.5L356.1 709.4L355.8 708.3L356.2 708L355.2 707.7L356.3 707.8L355.6 707.6L355.1 705.8L354.4 704.9L355.3 705.2L354.5 704.8L353.9 703L352.3 701.5L351.2 701.5L351.4 701.2L351.3 701.4L350.6 700.7L349.9 700.7L350.3 700.9L350 701L349.5 699.4L348.8 699.3L348.3 698.5L348.1 698.8L348.8 697.1L348.3 695.4L349.1 693.9L348.2 693.6L347.4 692.6L345 691.8L343.4 689.6L343.8 687.5L343 687.8L343.1 687.3L341.5 686.3L342.8 689.2L341.7 689.8L342.1 692.8L342.3 692.4L341.8 693.3L341.5 688.5L340.5 685.3L339.9 679.5L339.8 680.3L339.3 680L339.9 677.6L339.7 675.8L338.4 675L338.7 675.3L338 675.3L336.1 672.3L334.1 670.6L332.7 669.9L332.8 670.7L333.6 670.8L332.6 670.5L332.5 669L331.5 667.8L330.1 666.6L329.4 666.8L328.7 665.4L326.9 664.7L324.1 662.2L325 661.3L327 660.7L329.9 656.4L330.4 651.5L329.8 650.6L330.1 650.3L335.6 650.7L335.5 649.6Z"/>
  <path class="saudi-region" id="sa-region-11" data-region-id="11" data-region-code="NG" data-name-ar="منطقة نجران" data-name-en="Najran" data-ring-count="1" d="M461.9 597.2L451.5 601.3L450.3 591.1L422.4 592.4L422.1 593.5L422.7 595.7L422.3 596.6L422.3 596.7L424.3 599.3L424.4 601.5L423.7 602.3L423 605.2L421.5 606.3L421.9 612.7L419.5 612.5L415 615.5L411.7 619.4L409.1 620.1L408 620.7L407.4 624L406.2 625.1L406.9 628.6L403.4 632.1L406.7 632.9L406.9 633.6L404.7 635.3L403.8 635.3L401.3 637.3L400.6 639.1L401 640.1L400.3 641.3L399.6 641.7L396.5 642L396.3 642.5L397.1 644.7L395.7 646.2L395.3 648L394.2 649.5L395.2 651.4L393.6 653.8L392.7 654L391.4 656.4L391.8 657.2L391.1 657.5L390.7 661.4L391.3 662.6L390.7 666.5L391.5 666.9L392.4 672L395.8 675.1L395 676L394.2 676L394.6 677.2L395.7 678.6L397.6 678.4L398.4 678.4L399.1 679.1L400.1 679.9L400.5 679.9L403.1 679.8L405.5 680.2L407.3 677.2L407.8 677.7L408.8 677.1L409.5 677.1L410.9 678.7L411.3 678.7L412.1 678L412.3 676.9L421.5 675.9L425.5 675.9L429.5 677.1L432.8 675.9L455.4 675.9L462.7 680.1L490.7 683.6L501.3 684.3L502 684.2L516.6 682.2L526.6 696.1L533.9 696.1L545.2 689.2L550.6 675.2L566.5 654.6L573.8 645.2L611.1 626.2L677.6 619L726.2 610.1L726.3 610.1L726.1 596L547.5 596L463 597.6L463 597.2L462 597.2Z"/>
  <path class="saudi-region" id="sa-region-12" data-region-id="12" data-region-code="BA" data-name-ar="منطقة الباحة" data-name-en="Bahah" data-ring-count="1" d="M331.7 550.3L331.8 550.3L332.2 550L331.7 545.8L331 545.3L332 543.2L330.2 542.6L328.1 541L327.3 540.7L325.3 539.8L324.5 538.4L322.9 539.9L321.3 540.6L321.1 540.7L319 540.4L313.9 539L311.2 536.2L309.3 535.2L307.4 535.3L306 534.6L304.7 532.7L303 532.5L300.8 533.7L300.2 534.9L300.6 538.5L299.7 539.2L299.7 540.1L299.2 540.4L299 540.5L299.2 541.4L298.4 542.1L298.6 545.1L297.6 545.7L297.6 546.4L296.7 547.3L297 547.6L295.5 548.6L295.1 548.4L295.4 550.3L294.8 551.3L294.7 553.1L294 553.2L293.8 553.9L292.9 553.9L291.9 551.9L290.8 551.6L287.9 552.5L288.3 553.9L287.1 555.5L286.2 555.9L286.6 557.3L282.4 560.3L280.2 562.5L281.7 563L281 563.8L281 565.4L281.3 567.9L283 569.3L282.6 570.9L284.6 571.7L287 575.6L288.9 574.8L288.9 575.7L287.4 578L287.3 578.9L288.3 579.9L295.1 583.6L294 585.4L292.6 586L292.7 587L291 587.3L291.2 588.4L294.7 587.5L296.5 587.9L298 587.7L297.3 589.4L297.4 591.2L299.1 590.7L300.2 589.2L301.9 588.9L304.5 589.4L305.9 588.5L305.8 587.7L306.6 588.2L307.2 587.7L307.6 588.3L308.9 587.7L309.1 586.1L308.6 585L310 584L309.2 582.4L309.2 581.5L313.9 579.4L315.1 580.5L315.7 579.8L315.3 578.3L315.5 578L318.3 578.2L318.9 576.6L319.2 575.6L318.5 573.7L320.8 571.1L320.6 568.9L321.2 567.9L320.7 567.5L321.2 566.3L320.8 563.5L321.9 564.4L322.1 562.5L321.9 562.1L321.6 561.4L322.1 559.9L323.7 557.9L325.6 557.2L325.9 556L326.8 555.6L326.4 554.6L327.3 552.4L330.2 550.5Z"/>
  <path class="saudi-region" id="sa-region-13" data-region-id="13" data-region-code="GO" data-name-ar="منطقة الجوف" data-name-en="Jawf" data-ring-count="1" d="M313.3 164.1L314.1 162.7L313 161.5L312.8 160.7L312.8 157.8L313.2 156.3L311.8 155.2L310.7 153.3L310.4 151.7L309.1 149.7L309.1 145.1L308.2 145.9L307.2 145.7L306.3 146.7L305.7 146.3L305.9 145.5L305.3 144L305.4 141.4L304.8 139.6L305 137.2L305.5 136.5L304.3 135.7L304.2 134.5L308.8 132.9L309.1 132L310.5 131.4L310.5 130.4L311.3 129.1L313.2 128.4L314.7 128.9L316.8 128.5L317.5 125.5L319.7 123L325.5 121.6L326.9 120.2L325.9 118.6L322 115.2L320.7 112.8L319.1 111.5L317.3 108.8L313.9 109.5L310.7 107.3L310.2 104.5L312.3 102.7L313.1 101L312.5 100.4L310.1 100L308.4 98.9L305.3 99.2L304.9 97.2L302.6 98.1L300.1 97.7L298.7 98.3L297.4 98L295.3 98.9L294.3 100.9L292.4 101.7L291.9 97.5L292.5 95L291.6 92.5L291.6 91.2L288.8 89.7L287.2 89.4L282.4 89.5L275.2 90.7L272.6 92L266.3 88.3L265 88.4L263 87.2L261.1 87.4L260.3 86.8L259.2 86.7L258.6 86.8L258.6 87.5L258.1 87.6L257.7 88.8L256.6 89.3L255.7 90.6L254.8 91.1L253.2 90.7L251.8 91L249.8 89.6L249.4 88.7L247.3 88.4L246.1 86.8L243.1 85.3L242.7 84.3L240.6 85.1L239 86.2L237.7 86.4L235.2 84.7L233.6 82.3L231.7 81.8L230.5 81.8L229.3 82.5L228.5 82.1L225.4 84.3L224.5 84.4L222.7 83.7L222.1 82.4L221 81.9L215.6 80.9L207.4 81.2L206 82.2L204.5 81.9L201.5 84.4L199.5 84.2L199.4 85L198.4 84.9L197.7 83.5L196.1 82.8L190.6 82.7L187 84L180.1 84.8L178.2 85.3L177.1 86.5L175.9 86.3L174.5 86.7L174.9 85.8L174.7 83.1L174.3 82.6L174.1 81.1L174.9 79.1L174.6 76.1L175.4 74.1L176.1 73.8L176 73L177.8 72.8L179 71.2L179.1 69.1L178.4 68.4L177 68.3L176.4 66.7L176.2 60.9L175.3 58L171.1 56.2L166.1 52.5L165.5 52.2L166.1 50.5L165.9 49.3L166.9 48L166 47L166.7 45L127.6 56.7L167.5 103.3L154.2 111L147.6 126.4L142 127.5L142.8 129L144 130.8L147.2 129.7L148.8 129.8L151.4 132.6L154.2 133.8L156.4 135.3L155.8 138.1L156.8 139.4L156.3 141.5L156.6 143.1L156.1 146.5L164.5 146.8L165.8 146.2L167.2 144.9L171.1 146.3L172.5 147.5L174.7 147.3L174.9 148.8L176.8 151.2L176.7 153.1L177.6 153.7L178.9 154.6L179.8 155.7L179.8 155.7L179.9 156.6L179.5 157.5L179.3 158.3L179 158.6L178.1 159.6L176.6 160.3L175.5 160.7L175.6 162.3L174.8 162.9L176.3 163.9L175.2 166.4L175.5 171.5L181.9 172L181.8 170.1L182.4 168.2L184.2 166.8L182.6 164.3L182.5 162.8L183 162.5L184.9 163.3L185.6 163.1L188.3 159.8L189.7 157.2L193.5 159.5L198 160.5L198.1 168.4L198.4 170.4L199 171.5L198.1 172.3L198.3 175.5L201.5 175.2L202.9 176.9L203.7 176.7L206.1 179.1L206.7 179L209.4 190.6L212.2 189.3L214.4 189.2L215.1 189.9L216.1 194.7L215.8 201L219 199.6L223 199.5L228.1 197.4L232.1 197L233.8 196.1L235 196L238.6 192.7L242 190.5L243.7 188.6L250.7 186.3L259.1 181.8L267.1 178.4L269 176.7L270.3 176.1L304.1 176L303.2 171.7L304.6 168.9L305.1 165.5L307.1 164L311.6 162.8L313 163.8Z"/>
  </g>
</svg>
